<svg width="600" height="300" viewBox="0 0 700 410" fill="none" xmlns="http://www.w3.org/2000/svg">
    <g clip-path="url(#clip0_649_5170)">
        <path d="M575.693 263.495C569.632 255.577 559.135 241.861 541.08 237.736C507.063 229.965 477.833 263.461 475.073 266.715C447.549 299.177 443.287 355.326 471.049 382.628C485.278 396.621 504.614 399.785 512.906 401.142C522.648 402.736 545.308 406.443 564.423 393.092C574.687 385.924 579.61 376.852 582.937 370.554C598.545 341.004 600.569 295.996 575.693 263.495ZM533.439 386.583C513.497 388.643 494.599 369.929 486.835 352.406C482.503 342.436 480.984 331.47 482.445 320.698C483.906 309.926 488.29 299.76 495.121 291.304C498 287.813 513.314 269.251 534.475 271.626C555.287 273.963 567.68 294.971 571.758 308.909C580.991 340.47 561.597 383.674 533.439 386.583Z" fill="#0E53D9"/>
        <path d="M407.675 390.653H397.188L392.199 350.202H407.677L407.675 390.653Z" fill="#FFB6B6"/>
        <path d="M407.395 387.228L396.198 382.673L395.877 382.542L389.695 387.228C386.205 387.228 382.857 388.615 380.389 391.083C377.921 393.551 376.534 396.899 376.533 400.39V400.817H410.347V387.228H407.395Z" fill="#2F2E41"/>
        <path d="M538.996 309.986L536.63 320.203L496.096 315.941L499.587 300.861L538.996 309.986Z" fill="#FFB6B6"/>
        <path d="M536.262 306.605L535.654 309.215L535.592 309.484L528.649 319.359L528.438 319.653L531.604 326.732C531.214 328.415 531.159 330.16 531.444 331.865C531.728 333.569 532.346 335.202 533.261 336.668C534.177 338.134 535.372 339.405 536.779 340.409C538.186 341.413 539.777 342.13 541.461 342.518L541.873 342.613L549.503 309.675L536.262 306.605Z" fill="#2F2E41"/>
        <path d="M400.564 173.232L458.392 175.256L458.795 174.67C458.795 174.67 463.728 186.18 463.728 196.045C463.728 199.325 461.446 220.778 462.606 224.837C462.75 225.342 461.758 226.579 462.083 228.93C462.295 230.455 463.46 229.282 463.728 231.396C463.92 232.914 461.869 233.751 462.083 235.507C462.318 237.424 465.139 243.636 465.393 245.77C468.097 268.481 463.696 274.384 463.696 274.384C463.696 274.384 513.155 295.108 516.213 295.737C521.347 296.793 524.813 306.127 521.968 308.069C520.613 308.993 516.105 326.212 516.105 326.212C515.143 326.386 512.133 324.876 514.051 321.307C514.404 320.649 512.299 322.322 511.949 321.535C511.577 320.698 506.307 324.369 505.881 323.441C502.055 315.102 454.18 303.546 448.613 297.612C440.387 288.845 435.178 277.679 433.745 265.743L428.976 221.938L424.599 241.794L420.978 245.372L421.971 253.716L421.8 261.814L412.757 295.521C412.757 295.521 411.4 358.469 413.579 360.468C414.758 361.55 419.765 374.886 410.29 376.088L393.077 374.76C393.077 374.76 390.757 369.872 391.917 368.133C393.077 366.393 393.007 366.868 391.592 364.022C390.177 361.175 390.757 356.351 390.757 356.351C388.502 333.682 387.613 310.898 388.093 288.122C388.956 250.713 394.185 207.738 394.185 206.862C394.229 205.967 394.064 205.074 393.704 204.254V201.893L395.925 193.526L400.564 173.232Z" fill="#2F2E41"/>
        <path d="M463.573 186.759C448.972 189.284 439.18 188.323 433.155 179.36C425.294 169.35 410.998 181.17 398.936 185.564L397.506 184.019L395.072 181.396L397.308 178.864L395.072 173.981L396.938 167.955L399.323 167.519L398.681 162.331L397.678 159.298L400.622 156.067L403.121 148.002L401.32 131.124C398.856 107.989 403.63 84.6595 414.984 64.352L421.816 58.219L424.652 55.6705L428.458 48.5674L432.478 49.036L443.363 50.2938L443.733 51.1817L446.405 57.627L456.111 68.0533C457.484 69.528 458.527 71.278 459.171 73.1871C459.815 75.0961 460.045 77.1204 459.846 79.1253L459.567 81.9369L459.362 83.9593L458.391 93.6931L454.437 133.459L454.141 135.572L450.959 158.435C456.131 163.433 456.445 162.342 458.64 171.139C458.887 172.117 461.748 174.296 461.929 175.25C462.184 176.598 463.573 186.759 463.573 186.759Z" fill="#3F3D56"/>
        <path d="M433.925 44.3773C444.366 44.3773 452.83 35.9131 452.83 25.4719C452.83 15.0307 444.366 6.56641 433.925 6.56641C423.484 6.56641 415.02 15.0307 415.02 25.4719C415.02 35.9131 423.484 44.3773 433.925 44.3773Z" fill="#FFB6B6"/>
        <path d="M453.706 11.2402C452.457 9.89124 450.853 8.92278 449.078 8.44654C447.302 7.97031 445.429 8.00571 443.673 8.54869C442.903 6.34608 441.543 4.39686 439.743 2.91328C437.942 1.4297 435.768 0.46863 433.459 0.134701C431.15 -0.199228 428.793 0.106791 426.646 1.01944C424.499 1.93208 422.643 3.41636 421.281 5.31068C420.658 5.03098 419.973 4.91684 419.293 4.97932C418.614 5.0418 417.961 5.27879 417.4 5.66732C416.285 6.46 415.387 7.51967 414.788 8.74931C413.242 11.6857 412.522 14.9863 412.703 18.2997C412.885 21.6131 413.961 24.8153 415.818 27.5655C415.078 26.0716 417.158 28.6445 419.186 27.9704C420.927 27.514 428.081 22.9269 429.866 23.1589C431.651 23.3908 432.231 21.9512 433.977 21.5146C435.687 20.9676 440.054 28.0384 440.929 32.7171C441.095 33.6037 441.497 34.7053 442.399 34.7255C443.51 34.7505 443.842 33.1599 444.779 32.5625C445.22 32.338 445.732 32.2936 446.206 32.4387C446.679 32.5838 447.078 32.9072 447.318 33.3406C447.537 33.786 447.646 34.2773 447.637 34.7736C447.628 35.2698 447.5 35.7566 447.265 36.1936C446.786 37.0621 446.17 37.8476 445.441 38.5198L445.926 38.7863C446.404 39.1285 446.986 39.2938 447.572 39.254C448.158 39.2142 448.713 38.9717 449.14 38.5681C450.945 39.3827 455.856 34.7887 455.204 32.0092C456.576 28.6023 457.325 24.9772 457.418 21.3059C457.494 17.6026 456.168 14.0074 453.706 11.2402Z" fill="#2F2E41"/>
        <path d="M307.997 74.9443C308.697 75.6018 309.532 76.0979 310.444 76.3977C311.356 76.6974 312.323 76.7935 313.276 76.6792C314.229 76.565 315.146 76.2431 315.961 75.7362C316.777 75.2294 317.471 74.5499 317.995 73.7457L358.407 83.4167L354.372 71.9802L315.72 64.3465C314.311 63.5551 312.66 63.3082 311.081 63.6526C309.501 63.997 308.103 64.9087 307.151 66.2151C306.199 67.5214 305.76 69.1315 305.916 70.7404C306.071 72.3493 306.812 73.845 307.997 74.9443Z" fill="#FFB8B8"/>
        <path d="M428.732 67.9096L425.495 66.2212L410.728 65.989L410.188 65.9836L410.158 65.9861L398.837 65.8129L344.167 64.9564L341.968 66.876L338.589 64.869L334.758 62.9272L331.242 64.7539L328.234 64.7068L327.776 66.7243L327.772 66.7315L327.759 66.7899L325.723 75.5915L325.719 75.5988L325.744 77.6747L329.281 81.4862L331.156 82.9236L335.049 84.6452L337.745 81.4348L340.905 84.7183L353.865 87.1039C375.529 93.0722 395.476 95.9448 410.786 90.4283L412.71 90.3383L427.906 89.6152C429.983 89.5187 431.986 88.8091 433.66 87.5759C435.335 86.3427 436.607 84.6412 437.315 82.686L437.319 82.6788C437.799 81.3508 438.005 79.9391 437.923 78.5292C437.856 77.2335 437.544 75.9622 437.004 74.7826C436.034 72.6364 434.377 70.8747 432.294 69.7757L428.732 67.9096Z" fill="#3F3D56"/>
        <path d="M654.143 378.295C654.873 378.321 655.594 378.123 656.207 377.726C656.821 377.329 657.298 376.754 657.573 376.077C657.849 375.4 657.909 374.655 657.747 373.942C657.585 373.23 657.208 372.584 656.667 372.093C656.573 371.737 656.506 371.481 656.413 371.125C657.095 369.344 658.293 367.807 659.854 366.711C661.415 365.615 663.267 365.01 665.174 364.974C667.081 364.938 668.955 365.472 670.556 366.508C672.158 367.544 673.413 369.034 674.162 370.789C678.479 380.634 684.043 390.816 681.428 401.731C699.022 363.504 692.465 316.223 665.618 283.931C658.244 279.96 652.231 272.838 650.604 264.517C654.246 265.712 658.743 262.716 655.978 258.918C654.781 257.468 653.572 256.03 652.375 254.579C666.025 239.762 682.676 262.687 667.686 282.653C672.71 288.831 677.075 295.518 680.71 302.604C679.814 295.051 680.724 287.394 683.365 280.262C686.048 273.613 691.14 267.987 695.617 262.218C701.06 255.19 712.43 258.3 713.256 267.146C708.187 268.866 707.596 276.216 713.422 277.166C712.056 293.65 701.44 308.887 686.69 316.251C692.309 331.553 694.602 347.878 693.415 364.136C695.85 345.125 716.186 340.324 730.359 332.642C731.261 332.052 732.314 331.737 733.391 331.735C734.468 331.733 735.522 332.045 736.425 332.633C737.328 333.22 738.041 334.057 738.476 335.043C738.911 336.028 739.05 337.119 738.875 338.182C736.917 339 735.045 340.01 733.286 341.199C732.462 341.764 731.833 342.571 731.485 343.508C731.138 344.445 731.088 345.466 731.344 346.432C731.6 347.398 732.148 348.262 732.914 348.904C733.679 349.546 734.625 349.936 735.621 350.02C728.609 367.859 710.159 379.969 691.092 380.084C689.336 388.063 686.755 395.839 683.391 403.285L655.092 403.554C654.988 403.241 654.893 402.917 654.799 402.603C657.42 402.743 660.048 402.561 662.625 402.062C655.617 393.923 650.217 389.788 654.142 378.295L654.143 378.295Z" fill="#F2F2F2"/>
        <path d="M85.1517 298.295C84.4214 298.321 83.7007 298.123 83.087 297.726C82.4733 297.329 81.9965 296.754 81.721 296.077C81.4456 295.4 81.3848 294.655 81.547 293.942C81.7092 293.23 82.0865 292.584 82.6278 292.093C82.721 291.737 82.7879 291.481 82.8812 291.125C82.1995 289.344 81.0015 287.807 79.4406 286.711C77.8797 285.615 76.0272 285.01 74.1203 284.974C72.2135 284.938 70.3393 285.472 68.738 286.508C67.1367 287.544 65.8813 289.034 65.1327 290.789C60.8149 300.634 55.2512 310.816 57.866 321.731C40.272 283.504 46.8294 236.223 73.6763 203.931C81.05 199.96 87.0636 192.838 88.6908 184.517C85.0488 185.712 80.5508 182.716 83.3166 178.918C84.5137 177.468 85.7221 176.03 86.919 174.579C73.2689 159.762 56.6185 182.687 71.6086 202.653C66.5839 208.831 62.2188 215.518 58.5846 222.604C59.4802 215.051 58.57 207.394 55.9289 200.262C53.2467 193.613 48.1542 187.987 43.6773 182.218C38.2343 175.19 26.8643 178.3 26.0386 187.146C31.1073 188.865 31.6979 196.216 25.8722 197.166C27.2387 213.65 37.8539 228.887 52.6039 236.251C46.9853 251.553 44.6928 267.878 45.8791 284.136C43.4442 265.125 23.1078 260.324 8.93474 252.642C8.03365 252.052 6.9803 251.737 5.9032 251.735C4.82611 251.733 3.77181 252.045 2.86893 252.633C1.96606 253.22 1.25363 254.057 0.818549 255.043C0.383471 256.028 0.244565 257.119 0.418753 258.182C2.37722 259 4.24957 260.01 6.00823 261.199C6.83222 261.764 7.46114 262.571 7.8088 263.508C8.15646 264.445 8.20584 265.466 7.95016 266.432C7.69448 267.398 7.14626 268.262 6.38065 268.904C5.61504 269.546 4.66951 269.936 3.67368 270.02C10.6848 287.859 29.1352 299.969 48.2022 300.084C49.9587 308.063 52.5396 315.839 55.9036 323.285L84.202 323.554C84.3065 323.241 84.4009 322.917 84.4952 322.603C81.8742 322.743 79.2461 322.561 76.6693 322.062C83.6775 313.923 89.0768 309.788 85.1526 298.295L85.1517 298.295Z" fill="#F2F2F2"/>
        <path d="M78.2637 296.588C131.432 287.983 164.27 375.764 198.562 370.24C261.41 360.115 235.36 45.1656 284.49 42.4873C326.371 40.2041 380.095 179.185 424.465 262.567C447.787 306.394 460.465 337.567 460.465 337.567C460.465 337.567 441.059 431.735 413.465 394.567C374.046 341.47 344.406 155.527 322.544 164.014C289.068 177.008 326.826 336.881 246.436 386.198C176.22 429.274 39.0648 368.071 38.9825 329.731C38.9509 315.007 59.1285 299.684 78.2637 296.588Z" fill="#0E53D9"/>
        <path d="M333.757 278.63C322.922 281.109 308.694 288.773 309.466 295.836C310.293 303.406 328.37 310.421 342.866 305.957C354.759 302.295 365.581 290.495 363.109 283.69C360.557 276.666 344.293 276.219 333.757 278.63Z" fill="#0E53D9"/>
        <path d="M618.219 253.221C621.716 247.3 626.718 238.523 623.049 232.304C618.041 223.812 602.508 212.49 592.843 223.534C585.497 231.928 587.146 235.284 587.245 248.316C587.513 283.891 567.373 359.865 588.423 396.018C592.363 402.786 614.142 401.444 622.771 402.285C632.335 403.218 642.713 393.92 642.122 383.158C641.593 373.52 632.536 370.713 623.486 364.373C590.938 341.574 600.109 283.887 618.219 253.221Z" fill="#0E53D9"/>
        <path d="M206.873 49.4568C206.653 52.0968 206.44 54.7368 206.234 57.3768C206.075 60.4689 205.644 63.5409 204.944 66.5568C204.783 67.3937 204.423 68.1794 203.894 68.8468C202.954 69.9168 204.694 76.1768 203.404 76.7768C202.094 77.4007 200.687 77.7964 199.244 77.9468C199.184 77.5069 199.104 77.0668 199.014 76.6368C199.004 76.5868 198.994 76.5468 198.984 76.4968C198.575 74.545 197.82 72.6822 196.754 70.9968C197.005 72.9938 196.782 75.0219 196.104 76.9169C195.994 77.2269 195.864 77.5368 195.724 77.8468C190.054 77.0068 185.144 73.1768 181.274 73.2168C178.923 65.3333 177.266 57.2592 176.324 49.0868C176.074 46.9068 175.934 44.4868 177.274 42.7568C178.464 41.2168 180.494 40.6568 182.394 40.2468C188.601 38.9057 194.944 38.2982 201.294 38.4368L190.303 35.8768C193.39 35.7027 196.485 35.996 199.483 36.7468C202.433 37.6368 205.223 39.5868 206.363 42.4568C207.233 44.6468 207.053 47.1068 206.873 49.4568Z" fill="#2F2E41"/>
        <path d="M144.977 381.87H134.398L129.365 341.065L144.979 341.066L144.977 381.87Z" fill="#FFB6B6"/>
        <path d="M113.047 397.479C113.052 398.664 113.524 399.8 114.361 400.638C115.198 401.477 116.333 401.952 117.518 401.959H137.432L138.049 400.681L140.866 394.868L141.957 400.681L142.199 401.959H149.71L149.603 400.672L147.6 376.652L144.98 376.492L133.659 375.821L130.878 375.651V382.823C128.767 385.067 112.206 393.554 113.047 397.479Z" fill="#2F2E41"/>
        <path d="M268.914 370.355L259.713 375.576L235.199 342.569L248.779 334.865L268.914 370.355Z" fill="#FFB6B6"/>
        <path d="M248.845 399.688C249.43 400.72 250.401 401.478 251.545 401.794C252.688 402.111 253.91 401.962 254.943 401.378L255.99 400.788H255.999L272.265 391.55L271.746 383.69L276.414 389.198L279.857 387.24L282.942 385.487L280.215 381.499L268.616 364.518L266.256 365.68L256.07 370.679L253.584 371.904L257.117 378.137C256.392 381.141 246.18 396.683 248.845 399.688Z" fill="#2F2E41"/>
        <path d="M197.476 181.571C209.868 182.016 207.965 211.373 211.833 236.906C215.284 259.687 225.379 278.925 222.003 279.743L255.416 342.013C242.35 354.149 227.019 362.197 207.857 363.332C187.063 344.224 181.36 300.253 176.586 254.752L171.374 294.71L178.323 358.12L147.582 365.555L126.319 364.036C108.297 291.343 142.393 209.132 157.072 177.897L197.476 181.571Z" fill="#2F2E41"/>
        <path d="M210.622 166.382L216.251 149.495L220.271 143.866L221.88 127.784C221.88 84.3611 212.194 91.5919 212.194 91.5919L199.56 76.3198L185.186 75.8706L173.828 75.5156L164.385 91.1961C160.224 92.6647 156.52 95.1967 153.641 98.5405C150.762 101.884 148.809 105.923 147.975 110.256L145.361 123.836L155.137 153.516L154.706 151.311C150.104 159.806 151.275 161.084 155.085 167.462L155.275 169.766C155.451 171.838 156.272 173.802 157.624 175.383C158.975 176.963 160.788 178.08 162.807 178.576C203.522 188.723 207.753 206.472 212.987 199.144C214.203 197.442 209.042 177.119 210.802 177.295C215.625 177.777 210.622 166.382 210.622 166.382Z" fill="#E6E6E6"/>
        <path d="M238.483 229.231C237.654 228.468 237.001 227.534 236.569 226.494C236.136 225.453 235.935 224.331 235.978 223.205C236.022 222.08 236.31 220.977 236.822 219.973C237.334 218.969 238.058 218.089 238.943 217.392L228.855 179.953L238.525 174.617L250.181 219.171C251.243 220.749 251.688 222.662 251.434 224.547C251.179 226.431 250.242 228.157 248.801 229.397C247.359 230.637 245.512 231.305 243.61 231.275C241.709 231.244 239.885 230.517 238.483 229.231Z" fill="#FFB6B6"/>
        <path d="M210.705 90.4995C210.705 90.4995 228.658 95.9667 230.238 105.512C231.817 115.057 234.577 123.478 233.864 127.382C233.15 131.287 242.056 157.42 240.32 160.426C238.585 163.432 243.254 164.083 241.642 169.01C240.03 173.937 239.131 174.96 240.153 175.859C241.176 176.757 245.587 196.297 245.587 196.297L232.137 200.205L207.363 138.82L210.705 90.4995Z" fill="#E6E6E6"/>
        <path d="M139.979 229.231C140.808 228.468 141.462 227.534 141.894 226.494C142.327 225.453 142.528 224.331 142.484 223.205C142.441 222.08 142.153 220.977 141.641 219.973C141.129 218.969 140.405 218.089 139.52 217.392L149.607 179.953L139.938 174.617L128.282 219.171C127.22 220.749 126.774 222.662 127.029 224.547C127.283 226.431 128.22 228.157 129.662 229.397C131.104 230.637 132.951 231.305 134.852 231.275C136.754 231.244 138.578 230.517 139.979 229.231Z" fill="#FFB6B6"/>
        <path d="M167.757 90.4995C167.757 90.4995 149.804 95.9667 148.224 105.512C146.645 115.057 143.885 123.478 144.598 127.382C145.312 131.287 136.406 157.42 138.142 160.426C139.877 163.432 135.208 164.083 136.82 169.01C138.432 173.937 139.331 174.96 138.309 175.859C137.286 176.757 132.875 196.297 132.875 196.297L146.326 200.205L171.099 138.82L167.757 90.4995Z" fill="#E6E6E6"/>
        <path d="M182.458 73.4141C194.818 73.4141 204.838 63.3943 204.838 51.0342C204.838 38.6741 194.818 28.6543 182.458 28.6543C170.098 28.6543 160.078 38.6741 160.078 51.0342C160.078 63.3943 170.098 73.4141 182.458 73.4141Z" fill="#FFB6B6"/>
        <path d="M205.164 86.5295C196.724 79.0245 211.114 57.588 199.874 43.2818L198.524 42.2713C197.507 44.2076 195.854 45.735 193.844 46.5972C193.425 44.6465 192.72 42.7681 191.754 41.0223C191.997 43.1848 191.803 45.3739 191.184 47.4601C190.554 47.5395 190.104 47.4488 189.944 47.1649C190.144 48.9021 184.834 49.765 185.944 47.0627C185.952 47.0355 185.962 47.009 185.974 46.9832C184.604 49.7422 181.784 51.0253 179.334 52.5581C176.884 54.0795 174.394 56.6228 174.634 59.7793C174.834 62.334 176.784 64.2415 178.744 65.5131C180.704 66.7961 182.904 67.7953 184.324 69.7822C186.714 73.1203 186.154 78.014 184.944 82.0788C184.702 82.7279 184.307 83.3087 183.791 83.7714C183.275 84.2341 182.655 84.5649 181.984 84.7355C181.585 82.5466 180.832 80.4373 179.754 78.4908C180.006 80.7522 179.785 83.0412 179.104 85.2125C177.647 85.2764 176.191 85.0437 174.827 84.5285C173.462 84.0132 172.216 83.2261 171.164 82.215L172.674 88.9139C170.244 88.403 167.794 88.982 165.324 89.4248C165.26 88.6668 165.157 87.9126 165.014 87.1654C164.625 84.9191 163.861 82.7543 162.754 80.7616C163.063 83.5306 162.661 86.3327 161.584 88.9026C161.464 89.1977 161.334 89.4929 161.194 89.7768C157.394 89.5043 153.604 87.2902 154.324 81.5337C154.641 79.6866 155.41 77.9467 156.564 76.4698C158.524 73.7221 148.534 70.7814 149.144 67.466C150.054 62.5497 159.164 58.201 158.444 53.2393C157.804 48.7431 157.93 38.5937 160.404 35.0955C163.979 30.0418 160.013 19.587 185.424 25.524C194.877 27.7327 198.154 18.4597 212.404 46.7768C214.847 51.6317 205.964 49.9627 211.184 60.3698C216.404 70.7769 201.454 79.0245 205.164 86.5295Z" fill="#2F2E41"/>
        <path d="M7.52202e-06 402.279C-0.00272248 401.708 0.738004 401.244 1.65456 401.243H743.142C744.062 401.243 744.807 401.707 744.807 402.279C744.807 402.851 744.062 403.315 743.142 403.315H1.66447C0.747917 403.317 0.00271752 402.856 7.52202e-06 402.285V402.279Z" fill="#CCCCCC"/>
        <path d="M380.954 188.939C381.861 188.624 382.688 188.114 383.377 187.445C384.066 186.776 384.599 185.964 384.94 185.067C385.281 184.169 385.421 183.208 385.35 182.251C385.28 181.293 385 180.363 384.531 179.525L411.844 148.211L399.841 146.48L375.148 177.181C373.794 178.062 372.809 179.41 372.382 180.969C371.954 182.528 372.113 184.189 372.829 185.639C373.545 187.088 374.767 188.224 376.265 188.833C377.762 189.441 379.431 189.479 380.954 188.939Z" fill="#FFB8B8"/>
        <path d="M392.909 171.515L396.789 167.234L400.533 166.912L400.788 166.593L401.766 165.345L402.141 161.867L405.017 161.193L411.427 153.005L412.406 151.376L439.312 119.939L444.801 110.798L445.664 108.941L448.352 103.159L447.997 88.5765C448.586 87.3172 448.918 85.9535 448.974 84.5647C449.03 83.1759 448.81 81.7898 448.325 80.487C448.17 80.0649 447.989 79.653 447.782 79.2537L447.63 78.9702C447.237 78.272 446.766 77.6206 446.225 77.0288L446.217 77.0149C445.264 75.9718 444.107 75.1366 442.817 74.5616C441.812 74.1026 440.74 73.8057 439.642 73.6818C437.108 73.4009 434.557 74.0422 432.456 75.4884L429.154 77.7715L426.157 79.86L419.296 92.4898L418.846 93.3133L418.83 93.3335L397.702 132.204L391.334 143.925L390.363 145.705L390.273 150.912L387.21 151.492L383.594 154.199L383.23 158.81L381.529 166.245L381.27 166.664L382.854 167.604L383.007 167.691L383.297 167.945L387.33 171.408L389.776 173.514L389.857 173.579L390.493 174.178L392.909 171.515Z" fill="#3F3D56"/>
        <path d="M160.948 37.7572C160.999 37.7762 161.043 37.7952 161.093 37.8142C161.189 37.8566 161.288 37.8926 161.388 37.9219C162.03 38.1577 162.7 38.3115 163.381 38.3797C163.671 38.4111 163.963 38.4265 164.255 38.4259C164.629 38.4272 165.003 38.4029 165.374 38.3533C165.787 38.3026 166.195 38.2196 166.595 38.1048C166.784 38.054 166.971 37.9936 167.155 37.9238C168.405 37.4798 169.535 36.7518 170.456 35.7972C171.377 34.8426 172.065 33.6873 172.464 32.4222V32.4159C172.506 32.2922 172.542 32.1664 172.572 32.0389C172.759 31.3311 172.853 30.6021 172.854 29.87V29.8574C172.859 28.0722 172.302 26.3307 171.263 24.8792C170.636 23.9909 169.912 23.8424 170.319 22.8267C171.614 19.5866 166.314 16.9379 163.186 18.3626C163.073 18.3518 162.96 18.3474 162.846 18.3492C160.74 18.3438 159.958 21.4547 158.703 23.206L158.739 23.2179C159.057 23.3292 159.332 23.5372 159.526 23.8127C159.72 24.0881 159.823 24.4174 159.821 24.7543C159.819 25.0913 159.711 25.4191 159.514 25.6919C159.316 25.9648 159.038 26.169 158.718 26.2761C157.882 26.5485 157.037 26.7891 156.184 26.998C153.369 30.3226 156.596 40.0491 160.948 37.7572Z" fill="#2F2E41"/>
        <path d="M171.016 24.0389C171.131 27.0268 170.365 29.9824 168.814 32.5385C167.263 35.0946 164.994 37.1384 162.291 38.4159C161.193 38.9133 160.237 37.2854 161.343 36.7845C163.758 35.6703 165.788 33.8634 167.175 31.5932C168.561 29.323 169.242 26.6919 169.13 24.0342C169.067 22.8208 170.954 22.8293 171.016 24.0389Z" fill="#0E53D9"/>
    </g>
    <defs>
        <clipPath id="clip0_649_5170">
            <rect width="744.807" height="403.554" fill="white"/>
        </clipPath>
    </defs>
</svg>
