<svg width="695" height="598" viewBox="0 0 695 598" fill="none" xmlns="http://www.w3.org/2000/svg">
<g clip-path="url(#clip0_4715_7189)">
<path d="M395.84 593.88H201.28C175.93 593.88 155.31 573.26 155.31 547.91V45.97C155.31 20.62 175.93 0 201.28 0H395.84C421.19 0 441.81 20.62 441.81 45.97V547.9C441.81 573.25 421.19 593.87 395.84 593.87V593.88Z" fill="#2F2E43"/>
<path d="M396.04 581.47H201.09C182.07 581.47 166.59 565.99 166.59 546.97V44.0801C166.59 25.0601 182.07 9.58008 201.09 9.58008H396.04C415.06 9.58008 430.54 25.0601 430.54 44.0801V546.97C430.54 565.99 415.06 581.47 396.04 581.47Z" fill="white"/>
<path d="M329.01 42.2999H266.97C259.82 42.2999 254 36.4799 254 29.3299C254 22.1799 259.82 16.3599 266.97 16.3599H329.01C336.16 16.3599 341.98 22.1799 341.98 29.3299C341.98 36.4799 336.16 42.2999 329.01 42.2999Z" fill="#2F2E43"/>
<path d="M339.95 249.79L320.67 234.79C320.67 234.79 298.67 241.65 298.1 241.93C297.53 242.21 263.95 320.09 263.95 320.09C263.95 320.09 349.97 364.11 343.68 359.82C337.39 355.54 338.69 297.52 344.54 289.95C350.41 282.37 345.4 263.37 345.4 263.37L339.97 249.8H339.94L339.95 249.79Z" fill="#2F2E43"/>
<path d="M286.64 284.88H312.79V326.36L283.96 316.89L286.64 284.88Z" fill="#F3A3A6"/>
<path d="M343.51 383.13C339.67 384.72 335.72 386.1 331.67 387.25C321.97 390.03 311.72 391.5 301.15 391.5C291.89 391.5 282.89 390.37 274.28 388.22C271.24 387.47 268.25 386.59 265.33 385.59C261.64 384.33 258.04 382.9 254.53 381.26L256.2 373.1L260.61 351.5L265.78 326.26L266.74 321.51L269.03 310.32L269.06 310.18H321.36L321.39 310.28L335.33 356.14L341.16 375.35L343.52 383.14L343.51 383.13Z" fill="#0E53D9"/>
<path d="M361.34 373.8C355.73 377.43 349.76 380.56 343.51 383.13C339.67 384.72 335.72 386.1 331.67 387.25L329.77 379.36L322.66 349.85L313.09 310.19H313.1C313.1 310.19 314.02 310.17 315.58 310.17C317.04 310.17 319.05 310.19 321.38 310.27C326.97 310.47 334.36 311.04 340.14 312.54C344.6 313.69 348.1 315.4 349.1 317.91C350.09 320.4 354.22 339.48 359.56 365.26C360.14 368.04 360.72 370.88 361.33 373.8H361.34Z" fill="#0E53D9"/>
<path d="M309.21 296.35C325.072 296.35 337.93 283.492 337.93 267.63C337.93 251.769 325.072 238.91 309.21 238.91C293.348 238.91 280.49 251.769 280.49 267.63C280.49 283.492 293.348 296.35 309.21 296.35Z" fill="#F3A3A6"/>
<path d="M344.99 262.36V262.4L337.95 263.61C337.57 262.06 337.14 260.62 336.7 259.3C336.16 257.7 335.59 256.26 334.99 254.97C333.46 251.69 331.74 249.39 329.98 247.8C323.37 241.81 316.05 245.79 315.08 245.59C313.8 245.33 296.55 264.05 294.34 284.87C294.11 287.18 294.05 289.52 294.22 291.87C294.23 291.96 294.23 292.04 294.23 292.13C294.69 299.23 292.2 305.18 288.53 310.01C288.49 310.06 288.45 310.11 288.41 310.16C287.11 311.86 285.65 313.42 284.14 314.85C279.78 318.93 274.86 321.9 271.19 323.78C268.36 325.24 266.28 326.05 265.77 326.24C265.69 326.27 265.65 326.28 265.65 326.28C265.65 326.28 260.98 335.05 260.61 351.48C260.46 358.37 261.06 366.6 263.07 376.1C263.49 378.08 263.96 380.1 264.51 382.18C264.81 383.33 265.09 384.47 265.33 385.57C261.64 384.31 258.04 382.88 254.53 381.24C251.73 379.95 249.01 378.55 246.35 377.03C243.92 375.66 241.54 374.19 239.23 372.63C240.45 369.72 241.63 367.18 242.66 365.17C243.36 363.8 243.99 362.69 244.5 361.88C250.79 351.87 246.5 334.45 246.5 334.45C236.79 325.88 248.21 307.02 248.21 307.02C248.21 307.02 246.2 281.87 252.21 277.02C258.22 272.16 258.5 260.15 258.5 260.15C269.09 214.14 303.66 223 303.66 223C347.17 218.22 345.09 260.82 345 262.33L344.99 262.36Z" fill="#2F2E43"/>
<path d="M291.9 310.36L289.98 318.86L287.03 331.86L276.07 380.31L274.28 388.22C271.24 387.47 268.25 386.59 265.33 385.59C261.64 384.33 258.04 382.9 254.53 381.26C251.73 379.97 249.01 378.57 246.35 377.05C246.94 374.2 247.51 371.41 248.08 368.68C254.02 339.88 258.72 317.99 259.79 315.31C260.8 312.77 264.04 311.3 268.1 310.49C268.4 310.43 268.72 310.37 269.03 310.32C269.32 310.27 269.63 310.22 269.92 310.18C274.7 309.48 280.24 309.53 284.57 309.75C286.07 309.83 287.42 309.93 288.54 310.02C289.17 310.07 289.74 310.13 290.2 310.17C291.28 310.28 291.91 310.36 291.91 310.36H291.9Z" fill="#0E53D9"/>
<path d="M301.15 393.5C291.89 393.5 282.68 392.38 273.79 390.16C270.73 389.41 267.66 388.5 264.67 387.48C260.89 386.19 257.19 384.71 253.68 383.08C250.9 381.8 248.1 380.36 245.35 378.79C242.88 377.4 240.44 375.89 238.1 374.31C206.56 353.15 187.72 317.92 187.72 280.08C187.72 217.54 238.6 166.65 301.15 166.65C363.7 166.65 414.58 217.53 414.58 280.08C414.58 318.78 395.08 354.44 362.43 375.48C356.7 379.18 350.59 382.38 344.28 384.98C340.37 386.6 336.32 388.01 332.23 389.18C322.18 392.05 311.73 393.51 301.16 393.51L301.15 393.5ZM301.15 170.64C240.81 170.64 191.72 219.73 191.72 280.07C191.72 316.58 209.89 350.56 240.33 370.99C242.58 372.51 244.93 373.96 247.32 375.3C249.98 376.82 252.68 378.21 255.36 379.44C258.75 381.02 262.31 382.44 265.97 383.69C268.85 384.68 271.81 385.55 274.76 386.28C283.34 388.42 292.22 389.5 301.16 389.5C311.35 389.5 321.44 388.09 331.13 385.32C335.08 384.2 338.99 382.83 342.76 381.27C348.85 378.76 354.74 375.68 360.27 372.11C391.78 351.81 410.59 317.4 410.59 280.07C410.59 219.73 361.5 170.64 301.16 170.64H301.15Z" fill="#2F2E43"/>
<path d="M0 595.36C0 596.3 1.07 597.05 2.41 597.05H692.44C693.77 597.05 694.85 596.3 694.85 595.36C694.85 594.42 693.78 593.67 692.44 593.67H2.41C1.08 593.67 0 594.42 0 595.36Z" fill="#2F2E43"/>
<path d="M434.59 320.95C436.72 318.86 439.34 317.32 442.24 316.46L463.33 293.47L474.45 304.13L451.85 326.31C450.88 329.15 449.24 331.69 447.05 333.72C441.64 338.89 434.47 340.22 431.03 336.69C427.58 333.17 429.17 326.12 434.57 320.96H434.59V320.95Z" fill="#F3A3A6"/>
<path d="M443.38 310.6L454.58 324.68L512.47 280.86L512.52 280.76L546.35 217.63C551.53 207.96 548.66 195.93 539.67 189.65C534.17 185.8 527.33 184.73 520.91 186.7C514.49 188.67 509.44 193.4 507.04 199.67L485.09 257.12L443.38 310.58V310.6Z" fill="#D5D5D6"/>
<path d="M538.71 164.58H515.11V202.02L541.13 193.47L538.71 164.58Z" fill="#F3A3A6"/>
<path d="M492.41 149.02C492.41 163.34 504.01 174.94 518.33 174.94C532.65 174.94 544.25 163.34 544.25 149.02C544.25 134.7 532.65 123.1 518.33 123.1C504.01 123.1 492.41 134.7 492.41 149.02Z" fill="#F3A3A6"/>
<path d="M536.67 165.59L539.2 170.39L550.36 149.18C557.08 128.6 533.61 116.78 533.61 116.78C525.95 107.76 510.56 118.31 510.56 118.31C488.36 113.38 499.08 132.09 499.08 132.09C499.08 132.09 506.65 132.26 506.65 138.38C506.65 144.51 514.9 144.08 514.9 144.08L521.36 155.39L524.93 151.05C538.2 145.43 536.67 165.59 536.67 165.59Z" fill="#2F2E43"/>
<path d="M548.27 548.21H527.33V577.92H548.27V548.21Z" fill="#F3A3A6"/>
<path d="M506.94 595.9C516.13 595.9 529.55 594.94 529.65 594.93C533.24 595.25 551.16 596.66 552.05 592.56C552.87 588.79 551.66 584.85 551.49 584.31C549.76 567.18 549.12 566.98 548.74 566.87C548.13 566.69 546.35 567.54 543.46 569.4L543.28 569.52L543.24 569.73C543.19 569.99 541.91 576.28 535.84 575.32C531.68 574.66 530.33 573.74 529.9 573.29C530.25 573.13 530.69 572.85 531 572.37C531.45 571.67 531.53 570.77 531.23 569.69C530.45 566.85 528.11 562.64 528.01 562.46L527.74 561.98L503.94 578.04L489.24 582.24C488.13 582.55 487.24 583.35 486.79 584.41C486.17 585.89 486.55 587.61 487.75 588.69C490.42 591.09 495.73 595.2 501.29 595.71C502.77 595.85 504.73 595.9 506.93 595.9H506.94Z" fill="#2F2E43"/>
<path d="M592.605 503.674L576.471 517.021L595.409 539.913L611.543 526.566L592.605 503.674Z" fill="#F3A3A6"/>
<path d="M591.18 566.73C598.26 560.87 607.99 551.58 608.06 551.51C611.03 549.48 625.74 539.14 623.81 535.41C622.04 531.98 618.6 529.71 618.12 529.41C605.87 517.3 605.26 517.56 604.89 517.72C604.3 517.97 603.47 519.75 602.43 523.03L602.37 523.23L602.47 523.42C602.61 523.66 605.63 529.33 600.34 532.45C596.71 534.59 595.09 534.74 594.47 534.67C594.64 534.32 594.8 533.82 594.73 533.25C594.63 532.43 594.12 531.68 593.2 531.04C590.78 529.35 586.3 527.59 586.11 527.52L585.6 527.32L577.5 554.86L568.85 567.47C568.2 568.42 568.02 569.6 568.35 570.71C568.82 572.25 570.21 573.33 571.82 573.4C575.4 573.55 582.11 573.33 586.72 570.18C587.94 569.34 589.48 568.13 591.18 566.73Z" fill="#2F2E43"/>
<path d="M492.71 319.1L524.63 556.53H548.57L564.53 319.1H492.7H492.71Z" fill="#2F2E43"/>
<path d="M554.55 448.79L602.22 510.64L581.82 527.49L500.01 449.68L492.7 319.1L507.33 332.18L554.55 448.79Z" fill="#2F2E43"/>
<path d="M507.33 179.43L492.7 319.1H564.53L570.1 273.77C573.53 245.77 567.82 217.41 553.82 192.93L542.8 173.67L507.33 179.43Z" fill="#D5D5D6"/>
<path d="M500.89 358.79C501.96 356 503.71 353.51 505.99 351.53L515.64 321.85L530.19 326.94L518.84 356.49C519.15 359.47 518.7 362.46 517.55 365.23C514.78 372.17 508.8 376.36 504.21 374.58C499.62 372.8 498.14 365.73 500.91 358.79H500.89Z" fill="#F3A3A6"/>
<path d="M504.62 345.66L520.65 353.82L555.14 289.93V289.82L559.73 218.35C560.43 207.41 552.83 197.65 542.04 195.67C535.43 194.46 528.76 196.32 523.75 200.78C518.72 205.24 516.09 211.65 516.51 218.35L520.38 279.72L504.62 345.67V345.66Z" fill="#D5D5D6"/>
</g>
<defs>
<clipPath id="clip0_4715_7189">
<rect width="694.85" height="597.05" fill="white"/>
</clipPath>
</defs>
</svg>
