<svg version="1.1" id="Layer_1" xmlns="http://www.w3.org/2000/svg" xmlns:xlink="http://www.w3.org/1999/xlink" x="0px" y="0px"
	 viewBox="0 0 1080 1080" xml:space="preserve">
<path fill="#81ACEF" d="M51.58,978.62l53.92-127.03c25.73-60.63,28.25-128.43,8.02-191.1C98.9,615.17,91,566.83,91,516.64
	C91,258.22,300.49,48.73,558.91,48.73c258.42,0,467.91,209.5,467.91,467.91c0,258.42-209.49,467.91-467.91,467.91
	c-50.18,0-98.52-7.9-143.84-22.53c-62.68-20.23-130.48-17.71-191.1,8.02l-127.03,53.92C68.3,1036.12,39.43,1007.25,51.58,978.62z"/>
<g>
	<path fill="#0B1E34" d="M674.04,561.05c9.4,0,18.43-5.17,22.92-14.14l82.18-164.38c2.71-5.42,7.47-6.24,10.07-6.24
		c2.61,0,7.37,0.81,10.08,6.24l82.19,164.38c6.31,12.63,21.67,17.78,34.34,11.45c12.64-6.32,17.77-21.69,11.45-34.34l-82.19-164.38
		c-10.65-21.29-32.05-34.52-55.87-34.52c-23.8,0-45.21,13.23-55.85,34.52l-82.18,164.38c-6.32,12.64-1.2,28.01,11.45,34.34
		C666.29,560.18,670.2,561.05,674.04,561.05"/>
	<path fill="#0B1E34" d="M213.42,561.05c9.4,0,18.43-5.17,22.92-14.14l82.18-164.38c2.71-5.42,7.47-6.24,10.07-6.24
		c2.61,0,7.37,0.81,10.08,6.24l82.19,164.38c6.31,12.63,21.68,17.78,34.34,11.45c12.64-6.32,17.77-21.69,11.45-34.34l-82.19-164.38
		c-10.65-21.29-32.05-34.52-55.87-34.52c-23.8,0-45.21,13.23-55.85,34.52l-82.18,164.38c-6.32,12.64-1.2,28.01,11.45,34.34
		C205.67,560.18,209.58,561.05,213.42,561.05"/>
	<path fill="#0B1E34" d="M558.91,561.05c14.13,0,25.59-11.46,25.59-25.59v-92.37c0-14.13-11.46-25.59-25.59-25.59
		c-14.13,0-25.59,11.46-25.59,25.59v92.37C533.32,549.59,544.78,561.05,558.91,561.05"/>
	<path fill="#0B1E34" d="M558.91,376.25c6.78,0,13.31-2.56,18.04-7.42c1.29-1.27,2.31-2.55,3.2-3.96c1.02-1.41,1.8-2.81,2.44-4.35
		c0.64-1.54,1.02-3.2,1.41-4.74c0.38-1.66,0.5-3.32,0.5-5.12c0-6.77-2.69-13.17-7.55-18.04c-6.01-6.01-14.71-8.7-23.03-7.03
		c-1.66,0.39-3.32,0.9-4.86,1.41c-1.54,0.64-2.95,1.54-4.35,2.42c-1.41,0.9-2.69,2.05-3.97,3.2c-1.15,1.16-2.17,2.56-3.2,3.97
		c-0.89,1.27-1.66,2.81-2.3,4.35c-0.64,1.54-1.15,3.07-1.41,4.74c-0.38,1.66-0.51,3.32-0.51,4.99c0,1.8,0.14,3.46,0.51,5.12
		c0.26,1.54,0.77,3.2,1.41,4.74c0.64,1.54,1.41,2.94,2.3,4.35c1.02,1.41,2.05,2.69,3.2,3.96c1.29,1.15,2.56,2.31,3.97,3.2
		c1.4,0.9,2.81,1.66,4.35,2.31c1.54,0.64,3.2,1.15,4.86,1.4C555.46,376.13,557.25,376.25,558.91,376.25"/>
	<path fill="#0B1E34" d="M558.91,719.55c92.86,0,185.73-31.34,248.4-94.03c10-10,10-26.19,0-36.19c-10-10-26.19-10-36.19,0
		c-105.11,105.11-319.33,105.11-424.44,0c-10-10-26.19-10-36.19,0c-10,10-10,26.19,0,36.19
		C373.18,688.21,466.04,719.55,558.91,719.55"/>
</g>
</svg>