<svg width="587" height="660" viewBox="0 0 587 660" fill="none" xmlns="http://www.w3.org/2000/svg">
<g clip-path="url(#clip0_649_5149)">
<path d="M332.479 508C472.759 508 586.479 394.28 586.479 254C586.479 113.72 472.759 0 332.479 0C192.198 0 78.4785 113.72 78.4785 254C78.4785 394.28 192.198 508 332.479 508Z" fill="#F2F2F2"/>
<path d="M498.464 113.588H33.1707C32.173 113.567 31.3814 112.741 31.4028 111.743C31.4235 110.775 32.203 109.996 33.1707 109.975H498.464C499.461 109.996 500.253 110.823 500.232 111.82C500.211 112.788 499.431 113.568 498.464 113.588Z" fill="#CACACA"/>
<path d="M339.892 174.473H211.267C201.605 174.473 193.773 182.305 193.773 191.966V191.966C193.773 201.627 201.605 209.459 211.267 209.459H339.892C349.553 209.459 357.385 201.627 357.385 191.966C357.385 182.305 349.553 174.473 339.892 174.473Z" fill="white"/>
<path d="M128.175 244.445H422.985C432.647 244.445 440.478 252.277 440.478 261.939C440.478 271.6 432.647 279.432 422.985 279.432H128.175C118.514 279.432 110.682 271.6 110.682 261.939C110.682 252.277 118.514 244.445 128.175 244.445Z" fill="white"/>
<path d="M128.175 314.418H422.985C432.647 314.418 440.478 322.25 440.478 331.911C440.478 341.573 432.647 349.405 422.985 349.405H128.175C118.514 349.405 110.682 341.573 110.682 331.911C110.682 322.25 118.514 314.418 128.175 314.418Z" fill="white"/>
<path d="M91.6408 657.759L90.9469 657.691C67.4063 655.263 46.1256 642.602 32.7585 623.073C29.0971 617.632 26.1355 611.751 23.9435 605.569L23.7328 604.979L24.3566 604.929C31.8035 604.33 39.4539 603.066 42.8524 602.465L20.9377 595.04L20.8022 594.389C19.5029 588.285 22.0483 582.005 27.2307 578.528C32.4271 574.883 39.318 574.766 44.6347 578.233C47.0207 579.757 49.5163 581.266 51.9296 582.727C60.2228 587.743 68.7984 592.93 75.2279 600.028C84.9774 611.006 89.2509 625.798 86.8579 640.283L91.6408 657.759Z" fill="#F2F2F2"/>
<path d="M171.3 646.861L182.1 646.86L187.239 605.198L171.297 605.199L171.3 646.861Z" fill="#A0616A"/>
<path d="M170.919 658.128L204.133 658.127V657.707C204.132 650.567 198.345 644.78 191.205 644.779L185.137 640.177L173.817 644.78L170.918 644.78L170.919 658.128Z" fill="#2F2E41"/>
<path d="M84.7402 616.945L93.3792 623.426L122.492 593.185L109.74 583.619L84.7402 616.945Z" fill="#A0616A"/>
<path d="M77.6738 625.73L104.243 645.662L104.495 645.326C108.779 639.614 107.623 631.511 101.912 627.226L99.8207 619.903L88.0033 616.792L85.684 615.052L77.6738 625.73Z" fill="#2F2E41"/>
<path d="M120.645 451.353C120.645 451.353 121.241 467.617 121.993 480.66C122.117 482.799 117.105 485.123 117.235 487.45C117.321 488.994 118.263 490.495 118.351 492.105C118.443 493.804 117.142 495.308 117.235 497.065C117.326 498.781 118.809 500.75 118.899 502.507C119.862 521.416 123.353 544.054 119.857 550.382C118.134 553.5 96.1719 596.706 96.1719 596.706C96.1719 596.706 108.409 615.061 111.905 608.943C116.522 600.862 152.111 563.055 152.111 555.835C152.111 548.625 160.344 494.582 160.344 494.582L166.085 526.564L168.718 532.901L167.891 536.621L169.592 541.641L169.684 546.609L171.34 555.835C171.34 555.835 166.358 627.717 169.164 629.719C171.978 631.729 185.604 635.339 187.213 631.729C188.812 628.119 199.223 556.71 199.223 556.71C199.223 556.71 200.901 523.985 202.72 493.568C202.824 491.803 204.066 489.67 204.162 487.931C204.275 485.912 203.489 483.29 203.594 481.332C203.707 479.085 204.704 477.503 204.8 475.353C205.543 458.738 201.372 438.504 200.044 436.511C196.032 430.498 192.422 425.691 192.422 425.691C192.422 425.691 138.386 407.937 123.947 425.977L120.645 451.353Z" fill="#2F2E41"/>
<path d="M174.537 284.104L153.116 279.82L143.12 293.386C124.467 311.727 124.186 327.914 127.516 353.86V390.275L125.106 414.687C125.106 414.687 116.575 432.533 125.374 436.687C134.174 440.842 191.973 440.488 197.491 438.829C203.01 437.171 198.226 435.135 196.777 427.405C194.055 412.886 195.876 419.889 196.063 415.267C198.749 348.953 192.493 321.729 191.858 314.573L180.964 294.814L174.537 284.104Z" fill="#3F3D56"/>
<path d="M287.44 337.571C285.207 341.801 279.968 343.42 275.738 341.188C275.287 340.95 274.858 340.672 274.456 340.359L228.195 369.732L228.329 353.74L273.267 327.661C276.468 324.072 281.972 323.758 285.561 326.959C288.564 329.637 289.341 334.024 287.44 337.571Z" fill="#A0616A"/>
<path d="M157.625 302.624L152.359 302.066C147.492 301.561 142.718 303.646 139.779 307.557C138.654 309.041 137.845 310.74 137.404 312.549L137.401 312.563C136.08 318.009 138.152 323.715 142.659 327.044L160.849 340.456C173.615 357.704 197.606 369.148 225.748 378.445L269.49 351.279L254.018 332.54L224.015 348.62L179.417 314.096L179.391 314.075L162.417 303.139L157.625 302.624Z" fill="#3F3D56"/>
<path d="M167.3 273.585C181.096 273.585 192.28 262.401 192.28 248.605C192.28 234.809 181.096 223.625 167.3 223.625C153.504 223.625 142.32 234.809 142.32 248.605C142.32 262.401 153.504 273.585 167.3 273.585Z" fill="#A0616A"/>
<path d="M167.876 273.59C167.675 273.597 167.473 273.601 167.271 273.607C167.185 273.831 167.092 274.053 166.984 274.27L167.876 273.59Z" fill="#2F2E41"/>
<path d="M174.732 249.298C174.772 249.544 174.832 249.787 174.912 250.023C174.879 249.776 174.818 249.533 174.732 249.298Z" fill="#2F2E41"/>
<path d="M192.598 224.694C191.57 227.887 190.652 223.837 187.27 224.565C183.201 225.442 178.466 225.141 175.134 222.647C170.169 219.004 163.735 218.023 157.911 220.022C152.209 222.039 142.657 223.461 141.172 229.323C140.655 231.361 140.45 233.573 139.199 235.262C138.104 236.738 136.377 237.58 134.933 238.717C130.055 242.554 133.783 253.456 136.091 259.217C138.4 264.978 143.695 269.174 149.517 271.324C155.149 273.404 161.263 273.77 167.272 273.607C168.317 270.896 167.866 267.766 167.003 264.956C166.07 261.914 164.687 258.978 164.297 255.82C163.907 252.662 164.764 249.074 167.412 247.31C169.846 245.688 173.806 246.676 174.732 249.298C174.192 246.02 177.513 242.847 180.937 242.289C184.614 241.69 188.29 243.018 191.956 243.678C195.622 244.339 194.321 228.905 192.598 224.694Z" fill="#2F2E41"/>
<path d="M332.303 289.927C334.632 261.79 313.711 237.093 285.574 234.765C257.437 232.436 232.74 253.357 230.412 281.494C228.083 309.631 249.005 334.328 277.141 336.656C305.278 338.985 329.975 318.064 332.303 289.927Z" fill="#0E53D9"/>
<path d="M294.786 264.411L281.358 277.839L267.93 264.411C265.756 262.237 262.232 262.237 260.058 264.411C257.884 266.584 257.884 270.109 260.058 272.282L273.486 285.711L260.058 299.139C257.886 301.315 257.89 304.839 260.065 307.011C262.238 309.179 265.757 309.179 267.93 307.011L281.358 293.582L294.786 307.011C296.962 309.182 300.486 309.179 302.658 307.003C304.827 304.83 304.827 301.312 302.658 299.139L289.23 285.711L302.658 272.282C304.832 270.109 304.832 266.584 302.658 264.411C300.484 262.237 296.96 262.237 294.786 264.411Z" fill="white"/>
<path d="M261.214 242.744C262.721 247.283 260.263 252.185 255.723 253.692C255.239 253.852 254.742 253.97 254.237 254.043L243.407 307.76L231.959 296.592L244.252 246.11C243.878 241.316 247.462 237.126 252.256 236.753C256.268 236.44 259.971 238.917 261.214 242.744Z" fill="#A0616A"/>
<path d="M146.126 312.225L142.077 315.639C138.344 318.801 136.543 323.689 137.331 328.518C137.622 330.357 138.289 332.117 139.289 333.687L139.297 333.7C142.312 338.423 147.864 340.878 153.387 339.931L175.657 336.089C196.942 338.819 221.809 329.429 248 315.559L258.68 265.186L234.447 263.378L225.279 296.16L169.491 304.442L169.458 304.446L149.815 309.124L146.126 312.225Z" fill="#3F3D56"/>
<path d="M272.937 658.99L1.18684 659.298C0.529247 659.296 -0.00212362 658.761 6.38126e-06 658.103C0.00211638 657.449 0.532236 656.919 1.18684 656.916L272.937 656.609C273.594 656.611 274.126 657.146 274.124 657.804C274.122 658.458 273.591 658.988 272.937 658.99Z" fill="#CACACA"/>
<path d="M56.7769 90.7035C61.4474 90.7035 65.2335 86.8329 65.2335 82.0584C65.2335 77.2839 61.4474 73.4133 56.7769 73.4133C52.1065 73.4133 48.3203 77.2839 48.3203 82.0584C48.3203 86.8329 52.1065 90.7035 56.7769 90.7035Z" fill="#3F3D56"/>
<path d="M85.9898 90.7035C90.6603 90.7035 94.4464 86.8329 94.4464 82.0584C94.4464 77.2839 90.6603 73.4133 85.9898 73.4133C81.3194 73.4133 77.5332 77.2839 77.5332 82.0584C77.5332 86.8329 81.3194 90.7035 85.9898 90.7035Z" fill="#3F3D56"/>
<path d="M115.205 90.7035C119.875 90.7035 123.661 86.8329 123.661 82.0584C123.661 77.2839 119.875 73.4133 115.205 73.4133C110.534 73.4133 106.748 77.2839 106.748 82.0584C106.748 86.8329 110.534 90.7035 115.205 90.7035Z" fill="#3F3D56"/>
<path d="M148.517 88.8911C148.257 88.8911 147.998 88.7905 147.802 88.5903L142.096 82.7573C141.715 82.3687 141.715 81.7476 142.096 81.3589L147.802 75.5264C148.189 75.1318 148.823 75.1255 149.216 75.5107C149.611 75.897 149.618 76.5303 149.232 76.9248L144.21 82.0581L149.232 87.1919C149.618 87.5864 149.611 88.2197 149.216 88.606C149.022 88.7964 148.769 88.8911 148.517 88.8911Z" fill="#3F3D56"/>
<path d="M158.104 88.8911C157.851 88.8911 157.599 88.7964 157.404 88.606C157.009 88.2197 157.003 87.5869 157.389 87.1919L162.41 82.0581L157.389 76.9248C157.003 76.5303 157.009 75.897 157.404 75.5107C157.798 75.124 158.432 75.1314 158.818 75.5264L164.524 81.3589C164.904 81.7476 164.904 82.3687 164.524 82.7573L158.818 88.5903C158.623 88.7905 158.363 88.8911 158.104 88.8911Z" fill="#3F3D56"/>
<path d="M456.614 74.4143H446.004C444.794 74.4143 443.814 75.3943 443.814 76.6043V87.2243C443.814 88.4343 444.794 89.4143 446.004 89.4143H456.614C457.824 89.4143 458.814 88.4343 458.814 87.2243V76.6043C458.814 75.3943 457.824 74.4143 456.614 74.4143Z" fill="#3F3D56"/>
<path d="M430.614 74.4143H420.004C418.794 74.4143 417.814 75.3943 417.814 76.6043V87.2243C417.814 88.4343 418.794 89.4143 420.004 89.4143H430.614C431.824 89.4143 432.814 88.4343 432.814 87.2243V76.6043C432.814 75.3943 431.824 74.4143 430.614 74.4143Z" fill="#3F3D56"/>
<path d="M481.114 74.9143H470.504C469.294 74.9143 468.314 75.8943 468.314 77.1043V87.7243C468.314 88.9343 469.294 89.9143 470.504 89.9143H481.114C482.324 89.9143 483.314 88.9343 483.314 87.7243V77.1043C483.314 75.8943 482.324 74.9143 481.114 74.9143Z" fill="#3F3D56"/>
<path d="M321.193 78.9541H236.383C234.903 78.9541 233.713 80.1541 233.713 81.6241C233.713 83.0942 234.903 84.2941 236.383 84.2941H321.193C322.663 84.2941 323.863 83.0941 323.863 81.6241C323.863 80.1542 322.663 78.9541 321.193 78.9541Z" fill="#3F3D56"/>
</g>
<defs>
<clipPath id="clip0_649_5149">
<rect width="586.479" height="659.298" fill="white"/>
</clipPath>
</defs>
</svg>
