<?xml version="1.0" encoding="UTF-8"?>
<svg xmlns="http://www.w3.org/2000/svg" viewBox="0 0 700 409.54">
  
  <g id="icon_-_2" data-name="icon - 2">
    <g id="x3hnxg">
      <g>
        <path fill="#000" stroke-width="0" d="M297.14,85.68c8.15-2.56,16.31-5.12,24.47-7.67,8.02-2.5,16.04-5.01,24.07-7.45,3.47-1.05,6.97-2.03,10.49-2.89,4.99-1.23,9.08.91,11.58,5.82,2.54,5,3.74,10.45,5.44,15.74,4.07,12.69,8.04,25.41,12,38.13.42,1.35,1.11,2.01,2.5,2.19,1.55.2,3.1.53,4.6.95,2.06.58,4,1.34,6.11-.08.85-.57,2.12-.31,3.15-.05,2.7.68,5.35,1.53,7.87,2.72.81.39,1.73.77,1.89,1.86.19.93.95,2.23-.16,2.66-1.29.5-2.86.69-4.29.22-.73-.24-.82-1.07-.38-1.6,1.71-2.06-.04-2.05-1.34-2.33-.98-.18-1.94-.47-2.91-.7-3.61-.86-6.16,1.13-6.23,4.88-.02,1.14,0,2.28.01,3.42.03,3.4-.26,6.77.93,10.14.71,2.01.77,4.34.54,6.55-.13,1.2.4,2.09,1.07,2.9.96,1.16,2.01,2.3,3.4,2.9,2.42,1.04,3.99,2.92,5.38,5.04.21,1.83.69,3.63.64,5.47-.05,1.98-.47,3.83-2.7,4.56-1.24.89-2.63,1.41-4.15,1.61-3.39.66-6.3,2.5-9.4,3.87-.4.17-.66.52-.71.99-.14,1.36-.99,1.65-2.12,1.27-1.04-.35-1.39-1.82-.76-2.9.29-.5.72-.88,1.15-1.24.17-.13.35-.23.54-.32,2.5-.46,4.61-1.87,6.89-2.84.17-.11.35-.2.53-.29,1.24-.39,1.6-1.23,1.23-2.44-.47-1.52-.81-3.09-1.83-4.38-1.39-2.22-1.86-4.78-2.62-7.22-4.26-13.71-8.59-27.39-12.9-41.08-4.71-14.99-9.4-29.98-14.18-44.95-.86-2.69-2.08-5.16-4.29-7.04-1.01-.87-2.14-1.4-3.45-1.57-6.34-.81-12.18,3.22-13.56,9.41-.66,2.96-2.31,5.08-5.13,6.12-6.36,2.35-12.9,4.16-19.38,6.16-2.93.9-5.81,1.97-8.79,2.75-5.77,1.52-8.17.72-11.75-4.21-1.42-2.07-3.15-2.86-5.47-2.19-2.17.63-4.39,1.17-6.38,2.31-.25.14-.48.31-.75.41-.66.26-1.51.71-1.91-.07-.4-.77.5-1.22,1.07-1.56,2.74-1.65,5.8-2.54,8.82-3.5.4-.13.84-.15,1.15-.48Z"/>
        <path fill="#000" stroke-width="0" d="M297.14,85.68c-1.43,1.42-3.47,1.4-5.18,2.16-1.98.88-4.1,1.5-5.81,3.08.86.63,1.38.05,1.84-.25,2.18-1.45,4.7-2,7.13-2.71,2.54-.75,4.9.42,5.86,2.53-.52.2-.97-.02-1.44-.22-4.92-2.14-12.03.55-14.39,5.41-.39.81-.49,1.62-.39,2.5.31,2.7.82,5.37,1.6,7.98,4.77,15.88,10.11,31.57,14.94,47.43,3.02,9.91,6,19.83,9.27,29.66.1.79.66,1.42.74,2.21.15,1.42-.65,2.4-2.04,2.39-1.05-.01-1.93-.3-1.45-1.64.37-1.05-.14-1.44-1.02-1.67-2.91-1.17-5.85-2.34-8.6-3.8-4.63-2.46-8.64-1.09-12.38,1.58-7.05,5.03-11.07,11.9-11.77,20.63-.17,2.14-.56,4.23.11,6.35.52,1.65,1.43,2.93,3.01,3.69,4.11,1.99,8.33,3.71,12.74,4.9,1.08-.38-.2-2.07,1.05-2.14,1.16-.06.98,1.37,1.59,2,.49.51,1,.97,1.62,1.33,1.21.72,1.14,1.47-.03,2.18-.99.96-2.13.62-3.22.29-5.41-1.62-10.59-3.82-15.59-6.44-1.31-.68-2.58-1.51-3.01-2.91-.75-2.46-2.44-4.04-4.38-5.48-1.24-.95-2.19-2.22-3.43-3.16-.36-.28-.77-.5-.51-.98.3-.56.82-.44,1.3-.22.52.24.97.59,1.36,1,.82.86,1.83,1.29,3.02,1.28,1-.36,1.04-1.23,1.17-2.09.7-4.81,1.73-9.45,4.34-13.73,3.11-5.09,7.54-8.43,12.73-11.01,1.32-.26,1.69-1.24,1.21-2.25-1.85-3.91.3-6.67,2.52-9.44.71-.88,1.58-1.59,2.07-2.69.62-1.38,1.33-1.34,2.04,0,.34.63.59,1.3,1.04,1.86,1.31,3.32,2.24,6.77,3.31,10.18.79,2.52,2.49,3.66,5.29,4.32-7.58-26.53-16.13-52.45-24.25-78.67-1.21,1.29-1.7,2.8-1.83,4.45-.19,2.38.1,4.72.87,6.97,3.33,9.73,6.3,19.57,9.33,29.39.3.96.49,1.94.51,2.94.28,2.05.95,4,1.64,5.94.24.67.53,1.48-.3,1.89-.84.4-1.19-.38-1.66-.93-1.55-1.83-1.5-4.22-2.28-6.31-1.09-1.29-1.24-2.97-1.79-4.47-.47-1.29-1.07-1.72-2.33-1.01-.86.48-1.74.92-2.71,1.17-1.32.45-2.66.87-1.36,2.68.21.29.02.67-.29.91-.5.29-1.05.34-1.6.37-2.19.12-2.34-.01-2.16-1.95.79-3.14,3.56-4.11,6.01-5.28,3.69-1.76,3.62-1.62,2.37-5.61-2.04-6.53-4.2-13.02-6.45-19.48-2.08-6-.24-11.04,3.11-16.26,4.1-6.38,9.81-9.45,16.85-10.85Z"/>
        <path fill="#000" stroke-width="0" d="M294.15,221.26c.06-.53,1.25-1.16.18-1.52-1.9-.63-2.6-2.14-3.2-3.85-.94.84,1.17,2.47-.97,2.74-.91-3.3-.66-6.66-.21-9.96,1.36-9.87,6.39-17.28,15.33-21.89,1.22-.63,1.96-1.35,1.64-2.79,1.12.48,3.07.54,1.3,2.52-.22.24-.23.61.08.7.46.13.97.15,1.46.12.65-.04.94-.48,1.1-1.1.29-1.11-.87-1.76-.81-2.78.97-.06,1.47.59,1.7,1.35.43,1.44,1.49,2,2.81,2.32,6.19,1.48,12.49,2.32,18.81,3.01,5.56.6,11.13.53,16.7.43,11.45-.2,22.81-1.28,33.99-3.86,1.58-.36,2.74-.98,3.26-2.68.32-1.05,1.07-1.91,2.43-1.4-.34.45-.63.95-1.04,1.32-.69.62-.44,1.24-.2,1.93.22.61.68.66,1.19.64,1.17-.05.63-.81.58-1.37-.04-.41.21-.67.55-.83,3.34-1.52,6.51-3.44,10.18-4.17-.19,1.24-1.31,1.42-2.17,1.8-1.69.76-3.4,1.49-5.11,2.2-1.22.51-1.45.97-.12,1.77,2.94,1.77,5.63,3.85,8.08,6.29,4.23,4.24,6.34,9.43,7.07,15.22.2,1.6,1.16,3.33-.15,4.93-1.65-.75-1.15-2.14-1.18-3.4-.03,2.28-.02,4.61.2,6.88.23,2.47-.91,3.8-2.95,4.6-2.58,1.02-5.39,1.33-7.88,2.66-.46.25-1.09-.16-1.46-.14,1.18.98,2.48-.96,3.86-.11.17.19.18.38.04.58-3.86.71-7.73,1.42-11.59,2.12.36-2.21,2.28-.86,3.2-1.51-1.34.13-2.84.15-4.12,1.07-.12.09-.41-.08-.35.18.02.07.37.12.5.3-2.38.9-4.9.89-7.37,1.22-2.75-.48-5.5-.22-8.23.1-11.59,1.33-23.21,1.33-34.83.68-3.47-.2-7.03.37-10.4-1-.27-.06-.28.41-.2.14.02-.06.08-.05.21-.01.52.17,1.19.18,1.09,1.01-3.67.27-7.19-.78-10.75-1.37-4.2-.7-8.38-1.49-12.41-2.95.27-.32.6-.49,1.11-.39-.82-.38-1.62-.56-2.3-.82.38.36,1.36.17,1.18,1.21-2.55-.36-4.96-1.26-7.39-2.04-.86-.27-1.62-.42-2.46-.12Z"/>
        <path fill="#000" stroke-width="0" d="M447.76,191.65c2.22,3.68,1.28,7.23-.47,10.73-2.69,4.23-6.71,6.86-11,9.2-5.45,2.97-11.05,5.52-17.21,6.63-1.15-.48-2.96-.07-2.95-2.14.37-1,1.3-1.27,2.15-1.62,1.39-.57,2.73-1.21,4-2.04,2.08-1.36,3.22-3.18,3.03-5.73-.04-.5-.03-1,0-1.5.06-.83-.25-1.94.69-2.3,1.04-.4,1.32.65,1.8,1.37.81,1.2,1.65.29,2.3-.27,2.57-2.24,5.35-4.27,7.46-7.01,2.56-1.53,3.6-4.33,5.35-6.53,2.15-2.69,2.58-2.81,4.17.15.2.38.4.76.7,1.07Z"/>
        <path fill="#000" stroke-width="0" d="M447.76,191.65c-.79-.24-.92-1.01-1.28-1.6-1.02-1.68-1.47-1.55-2.69-.02-1.94,2.43-2.97,5.62-5.91,7.23-.2.18-.38.16-.53-.06-.06-1.12.68-1.83,1.32-2.58,4.46-5.27,6.91-11.37,6.7-18.25-.17-5.61-1.84-10.96-5.19-15.59-5.19-7.16-11.85-12.63-19.7-16.68-.2-.08-.39-.18-.57-.3-3.11-2.05-6.47-3.56-9.97-4.79-2.07-.72-3.74-.37-5.31,1.42-1.95,2.23-3.39,4.73-4.75,7.32-1.79,3.39-1.41,7.06-1.21,10.68.07,1.33.99,2.28,2.07,3.1,2.08,1.59,4.43,2.89,5.87,5.21.41.66.99,1.23.91,2.1-.15.22-.33.25-.54.1-1.94-3.08-5.57-4.06-8.01-6.52-1.39-1.4-2.04-2.81-2.04-5.03,0-2.58-.14-5.29-1.19-7.92-.99-2.47-.32-5.36-.29-8.06,1.01.17.89,1.02.91,1.68.04,1.57.12,3.13.24,4.42.31-2.12,1.85-3.94,3.09-5.89,1.3-2.06,2.83-4.05,4.89-5.34,1.46-.92,1.48-1.7.65-2.91.75-.13,1.39.18,2.02.52,1.09.59,1.65,1.26.18,2.07-.55.31-1.02.67-.67,1.31.27.49.92.43,1.36.27.83-.29,1.57-.24,2.44-.19,1.27.08.44-1.56.76-2.39.73,2.08,2.54,2.82,4.35,3.63,9.74,4.39,18.52,10.13,25.14,18.68,6.69,8.63,9.14,18.21,5.65,28.88-.39,1.18-.39,2.14.33,3.19.46.68.99,1.4.98,2.32Z"/>
        <path fill="#000" stroke-width="0" d="M275.24,143.15c-.13,1.94,1.19,1.54,2.33,1.44.23,1.19-.8,1.36-1.47,1.8-3.7,2.41-7.48,4.71-10.56,7.96-5.94,5.33-10.12,11.69-11.55,19.68-.67,3.71-.48,7.36.62,10.96,2.2,7.43,7.01,12.96,12.86,17.77.87.72,2.23,1.14,2.27,2.62-2.22-.05-3.51-1.82-5.26-2.81.85,1.68,2.63,2.54,3.49,4.17-9.73-7.31-16.91-16.23-17.01-29.04-.07-8.78,4.04-15.98,9.85-22.33,3.5-3.82,7.61-6.86,11.86-9.74,1.02-.69,1.9-1.45,2.58-2.46Z"/>
        <path fill="#29221e" stroke-width="0" d="M327.16,227.74c-.95-1.09-2.77.21-3.66-1.41.83-.6,1.83-.5,2.61-.25,4.44,1.38,9.04.78,13.55,1.09,6.6.45,13.25.22,19.88.08,6.23-.13,12.4-1.42,18.66-1.22.46.01,1.65-.68,1.34.81-6.1,1.21-12.29,1.73-18.47,2.05-10.98.57-21.97.72-32.9-.84-.34-.05-.67-.2-1-.3Z"/>
        <path fill="#787880" stroke-width="0" d="M419.08,217.89c7.46-1.41,14.15-4.65,20.52-8.63,2.42-1.51,4.66-3.21,6.32-5.6.34-.49.67-1.11,1.36-1.28-1.27,3.41-4.16,5.3-6.97,7.18-10.07,6.73-21.56,9.69-33.18,12.25-2.62.58-5.16,1.53-7.87,1.62,0-.15,0-.3,0-.44.44-1.09,1.47-.94,2.34-1.1.9-.17,1.82-.27,2.67-.65,1.38-.62,2.9-.55,4.34-.9,2.12-.26,4.13-.92,6.13-1.6,1.4-.47,2.84-.79,4.33-.85Z"/>
        <path fill="#29221e" stroke-width="0" d="M386.9,225.6c-.6-.04-1.21-.08-2.37-.16,2.87-1.03,5.05-2.64,7.94-1.38-.6.19-1.06.38-1.54.47-.55.1-1.12.15-1.69.16-.7,0-1.26.19-1.57.87-.26.01-.51.03-.77.04Z"/>
        <path fill="#f7f7f5" stroke-width="0" d="M389.77,182.61c-1.25.13-2.04.9-2.01,2.08.05,1.55-.89,1.92-2.05,2.24-3.71,1.05-7.52,1.67-11.33,2.24-14.95,2.23-29.94,2.98-45.01,1.15-5.32-.65-10.56-1.56-15.77-2.77-1.39-.33-2.31-.86-2.35-2.47-.02-.67-.38-1.39-1.2-1.62-3.79-12.11-7.55-24.23-11.36-36.34-4.33-13.74-8.73-27.47-13.03-41.22-.66-2.1-1.08-4.29-1.45-6.47-.56-3.29.97-6.44,3.97-8.08,1.62-.89,3.38-1.51,5.09-2.23,2.86-1.2,5.43-.64,7.72,1.38,1.16,1.53,2.47,2.92,4.13,3.93,1.57.96,3.19,1,4.93.52,7.5-2.05,14.85-4.53,22.25-6.88,2.37-.75,4.8-1.31,7.16-2.14,3.14-1.11,5.2-3.08,5.63-6.33.79-5.95,4.99-8.14,10.03-9.33,5.49-1.3,8.96.45,11.18,5.65,2.86,6.69,4.58,13.78,6.81,20.69,4.19,13.02,8.29,26.08,12.4,39.13,3.57,11.35,7.07,22.72,10.63,34.07.27.88.68,1.72,1.02,2.57.49,1.46,1.2,2.84,1.55,4.36.34,1.48-.06,2.5-1.63,2.89h.01c-2.43,1.02-4.7,2.44-7.33,2.99h0Z"/>
        <path fill="#f7f7f4" stroke-width="0" d="M408.69,212.25c-.16-12.69-6.31-21.55-17.81-27.15,3.34-2.25,7.08-2.96,10.16-4.97,1.38-.12,2.54-.86,3.8-1.32,1.81-1.06,3.58-.95,5.48-.09,6.62,2.97,10.23,8.54,13.24,14.76,2.2,4.55,2.39,9.3,2.02,14.16-.17,2.2-1.28,3.87-3.24,4.97-3.35,1.88-6.83,3.47-10.32,5.08-.22.11-.44.19-.67.26-2.63.59-2.87.44-3.32-2,.06-1.26-.32-2.6.66-3.7Z"/>
        <path fill="#000" stroke-width="0" d="M411.65,217.36c2.71-1.24,5.42-2.49,8.14-3.71,5.45-2.44,6.31-4.68,5.52-11.68-.75-6.63-3.81-12.33-8.01-17.42-2.47-3-5.8-4.76-9.35-6.15-1.12-.44-2.04.54-3.11.41,3.02-1.67,2.8-4.31,2.2-7.13-.19-.88-.06-1.83-.08-2.75.14,0,.27,0,.41,0,1.04,1.54,1.99,3.16,1.8,5.08-.14,1.38.28,2.14,1.54,2.62,4.62,1.76,8.04,5.09,10.95,8.9,3.65,4.79,5.6,10.35,6.45,16.3.29,2,.44,2.04,2.21.93,1.83-1.15,3.3-2.7,4.83-4.19.63-.61,1.13-1.54,2.27-1.32.15,0,.31.01.46.02-1.99,3.11-5.15,5.01-7.76,7.48-1.34,1.27-2.21.96-3-.82-.19-.43-.41-.79-.9-.71-.49.08-.29.56-.34.87-.03.21-.03.43,0,.64.63,6.2-1.96,7.93-7.26,10.16-.78.33-1.61.57-2.2,1.24-1.41,1.1-2.72,2.55-4.76,1.24Z"/>
        <path fill="#ededef" stroke-width="0" d="M405.2,133.36c.1.1.18.22.3.29.62.42,1.8.38,1.79,1.25,0,.88-1.19.83-1.81,1.27-4.01,2.88-6.46,6.92-8.46,11.3-.2.43-.08,1.01-.61,1.29-.76-2.41-.47-4.94-.98-7.36.02-1.27.06-2.54.04-3.81-.05-3.56,3.2-6.05,6.67-5.1,1.02.28,2.04.57,3.05.85Z"/>
        <path fill="#361f1d" stroke-width="0" d="M397.08,179.63c1.43-.79,1.58-1.94,1.16-3.42-.36-1.28-1.12-2.45-1.09-3.83,1.31,1.67,1.97,3.62,2.02,5.68.03,1.15-.93,1.67-2.1,1.57Z"/>
        <path fill="#361f1d" stroke-width="0" d="M389.76,182.62c2.42-1.06,4.73-2.38,7.33-2.99-2.25,1.47-4.48,2.98-7.33,2.99Z"/>
        <path fill="#f6f7f5" stroke-width="0" d="M306.93,183.99c1.73,1.28,1.15,1.91-.51,2.8-5.41,2.9-10.18,6.59-12.94,12.29-2.59,5.36-3.51,11.08-3.32,17,.03.85,0,1.7,0,2.55-4.28-1.16-8.31-2.94-12.37-4.68-3.55-1.52-4.79-4.4-4.67-7.9.35-9.67,3.8-17.9,11.78-23.82,2.54-1.89,5.3-3.27,8.59-3.4,1.66-.07,3.05.56,4.48,1.18,2.99,1.31,5.97,2.65,8.95,3.98Z"/>
        <path fill="#cad6e8" stroke-width="0" d="M289.48,144.79c-.66-4.31-2.31-8.35-3.57-12.49-2.27-7.49-4.72-14.93-6.96-22.43-1.15-3.85-.27-6.95,2.52-10.15.9.84.48,2.01.78,2.96,2.3,7.19,4.59,14.38,6.85,21.58,2.51,8.01,4.98,16.04,7.48,24.06,2.18,7,4.38,13.99,6.53,20.99,1.04,3.4,1.99,6.84,2.95,10.26.09.31.13.76-.03,1-.32.49-.75.11-1.13-.03-2.75-1.04-4.97-2.37-5.64-5.72-.63-3.18-1.97-6.22-3-9.33-.69-2.56-2.44-4.71-2.86-7.37-.09-.2-.15-.4-.21-.61-1.23-4.25-2.2-8.57-3.7-12.73Z"/>
        <path fill="#000" stroke-width="0" d="M293.74,157.75c.9,2.56,2.01,5.06,2.52,7.75-.93-.66-.62-2.02-1.69-2.84-.56,3.16-3.76,4.39-4.84,7.29-.68,1.81-.94,3.26-.17,4.97.92,2.02.63,2.63-1.47,3.43-.16-.93.53-1.85.05-2.79-1.05-3.85.2-7.05,2.95-9.69,1.44-1.38,1.83-2.73,1.03-4.56-.45-1.03-.59-2.2-.9-3.3-1.64-5.86-5.16-10.05-10.88-12.29-.55-.21-.98-.58-1.2-1.15-.03-.14-.01-.31-.09-.41-1.59-2.1-1.41-2.55,1.45-3.48-.46,1.17-.45,1.97,1.12,2.33,1.7.39,3.31,1.21,4.7,2.28.79.61,1.04.22,1.36-.37.59.24.97.72.86,1.32-.38,2.17.98,3.75,1.79,5.51.19.4.44.87.91.63.45-.23.22-.73.05-1.13-.87-2.08-1.57-4.21-1.82-6.47,1.87,4.18,3.1,8.56,4.26,12.97-.64.55-.42,1.28-.42,1.96.01-.69-.2-1.42.42-1.97Z"/>
        <path fill="#000" stroke-width="0" d="M288.62,175.79c.9,1.08.07,1.79-.53,2.56-7.73,3.64-13.05,9.42-15.43,17.69-.66,2.3-.84,4.74-1.31,7.1-.19.95.05,2.32-1.62,2.23-2.62-2.35-5.42-4.48-7.86-7.06-3.57-3.78-6.24-8.02-7.69-13.02.09-.05.18-.11.27-.16.93.11,1.29.79,1.55,1.57,2.16,6.42,6.51,11.15,11.78,15.13,1.62,1.22,1.91,1.07,2.35-.86.43-1.88,1.04-3.73,1.28-5.64.55-4.37,3.29-7.49,5.92-10.7,2.25-2.74,4.99-4.92,8.01-6.69,1.43-.84,1.49-2.36,2.32-3.47,1.11-.13.37,1.08.96,1.33Z"/>
        <path fill="#000" stroke-width="0" d="M288.62,175.79c-.31-.43-.61-.85-.92-1.28-1.26-.66-.99-1.79-.79-2.82.38-1.98,1.06-3.88,2.46-5.38,1.93-2.08,2.27-4.25,1.44-7.03-1.11-3.71-2.69-7.01-5.47-9.75-1.48-1.46-3.24-2.31-5.14-2.94-1.21-.4-2.34-.18-3.49.41-2.94,1.51-5.47,3.6-8.08,5.58-.85.64-1.59,1.45-2.73,1.59-.23-.02-.41-.11-.56-.28,2.86-3.32,6.65-5.43,10.22-7.82.69-.46,1.64-.58,2.01-1.48.53,0,1.06-.01,1.59-.02,2.51,1.11,4.92,2.2,7.12,4.06,4.58,3.89,5.41,9.33,6.97,14.52.37,1.25-.59,1.95-1.35,2.7-1.85,1.82-3.45,3.81-3.52,6.56-.03,1.12.16,2.25.26,3.37Z"/>
        <path fill="#f2edf2" stroke-width="0" d="M287.69,144.93c.07.61.15,1.22.29,2.4-2.82-2.57-5.86-3.88-9.11-4.63.13-1.19,1.35-1.2,1.64-2.01q4.89-2.16,6.62,2.89c.16.46.37.91.56,1.36Z"/>
        <path fill="#cad6e8" stroke-width="0" d="M406.17,212.52c-.04,6,.32,6.21-5.7,7.75-9.68,2.46-19.47,4.17-29.39,5.29-6.81.77-13.67,1.1-20.49,1.13-9.9.03-19.83-.33-29.65-1.73-9.16-1.31-18.07-3.77-26.82-6.79-1.18-.41-1.63-1.41-1.71-2.7-.59-9.65,2.81-17.56,10.16-23.84,3.16-2.7,6.43-3.25,10.54-2.1,6.84,1.93,13.88,2.97,21.02,3.47,6.64.47,13.27.44,19.91.42,9.73-.02,19.34-1.17,28.85-3.24,1.53-.33,3.03-.65,4.49-1.29,3.96-1.75,6.84.44,9.57,2.86,6.21,5.52,9.22,12.48,9.23,20.76Z"/>
        <path fill="#29221e" stroke-width="0" d="M411.65,217.36c1.85.62,3.08-1.19,4.76-1.24.1,1.8,2.05.78,2.68,1.77-3.35,1.38-6.77,2.48-10.38,2.89-.12-.7.45-.78,1.13-1.11-2.15.23-3.87.8-5.33,2.07-1.63.92-3.55.58-5.24,1.25-1.87.27-3.74.53-5.65.8.02-.85.56-1.22,1.09-1.17,3.35.3,5.95-2.04,9.14-2.49,2.54-.36,3.17-1.74,3.14-4.32-.03-2.07-.02-4.13,0-6.2,0-.59-.23-1.31.65-1.76.43,1.48-.11,3.18,1.06,4.41.26,1.29.31,2.59-.04,3.87-.46,1.73-.06,2.24,1.53,1.86.5-.12,1.07-.24,1.48-.63h-.02Z"/>
        <path fill="#29221e" stroke-width="0" d="M304,223.42c-.55-.78-1.44-.77-2.24-1-.35-.1-.67-.38-.52-.78.15-.41.59-.39.89-.2,1.25.77,2.9.6,4.38,1.99-1.07,0-1.79,0-2.5,0,0,0,0,0,0,0Z"/>
        <path fill="#000" stroke-width="0" d="M437.41,197.23c-2.6,2.1-4.61,4.86-7.54,6.58-.54.31-.95.97-1.68.57-.58-.31-.55-.94-.6-1.51-.54-6.32-2.69-12.07-6.46-17.14-2.96-3.98-6.67-7.16-11.4-8.93-1.17-.44-1.62-.95-1.16-2.2.77-2.11-1.18-3.69-1.19-5.67-1.55-3.02-4.1-5.06-6.85-6.86-1.78-1.17-2.39-2.76-2.63-4.82-.87-7.42,2.64-13.04,7.22-18.24.82-.93,2.16-1.3,3.36-.97,4.25,1.17,8.32,2.8,11.83,5.56-.77.74-1.44.18-2.14-.15-2.13-1.02-4.24-2.05-6.37-3.07-3.29-1.58-5.87-1.01-7.81,2-2.26,3.49-4.25,7.16-4.79,11.36-.37,2.9-.17,5.7,2.74,7.53,2.19,1.38,3.82,3.42,5.63,5.24,1.05,1.05,1.61,2.38,1.75,3.83.36,3.7,2.45,5.88,5.63,7.69,4.08,2.32,7.29,5.76,9.42,10.01,1.88,3.75,3.8,7.52,4.26,11.8.17,1.52,1.12,1.47,2.16.88,2.8-1.57,4.85-3.94,6.86-6.37,2.91-3.51,4.96-7.46,6.17-11.85.45-1.65.79-3.37.71-5.07-.26-5.71-1.68-11.02-4.94-15.88-4.44-6.62-10.48-11.33-17.07-15.52-.92-.59-2.43-.77-2.24-2.43,3.27,1.09,6.08,2.99,8.7,5.15,3.02,2.49,6.13,4.9,8.72,7.85,5.14,5.85,8.17,12.65,8.21,20.49.04,6.79-2.49,12.74-6.86,17.92-.59.7-1.1,1.48-1.65,2.22Z"/>
        <path fill="#1d1d26" stroke-width="0" d="M404.5,221.74c-.4-.09-.89.07-1.12-.4-.04-.08.22-.43.33-.42,2.14.19,3.48-2.28,5.79-1.71.45.11,1.25-.85,1.51.15.22.88-.83.45-1.24.74-.34.24-.71.45-1.07.68-1.28.85-2.87.31-4.2.96Z"/>
        <path fill="#361f1d" stroke-width="0" d="M411.67,217.36c-.54.78-1.34.91-2.2.91-.57,0-1.16-.03-1.45-.61-.36-.71.02-1.18.64-1.52-.19,3.35,1.99.85,3.01,1.23Z"/>
        <path fill="#000" stroke-width="0" d="M293.74,157.75c.09,1.21.19,2.41.28,3.62-.21,0-.42,0-.63,0-.07-1.2-1.58-2.39.36-3.61,0,0,0-.01,0-.01Z"/>
        <path fill="#cad6e8" stroke-width="0" d="M253.67,185.18c-.55-3.94-1.08-7.92-.05-11.83.79-3.01,2.12-5.83,3.51-8.68,2.07-4.26,5.41-7.25,8.26-10.74,3.43-2.21,6.3-5.19,10.06-6.97,3.16-1.49,6.33-1.08,9.11,1.14,4.69,3.76,6.42,8.98,7.66,14.47.24,1.05-.68,1.66-1.21,2.38-1.49,2-3.07,3.93-3.6,6.47-.23,1.09-.36,2.1.21,3.1,0,1.73-.49,2.98-2.25,3.97-5.37,3.03-9.48,7.47-12.43,12.72-1.76,3.14-1.9,6.97-2.73,10.5-.46,1.95-.78,2.19-2.49,1.07-5.49-3.61-9.49-8.49-12.45-14.25-.56-1.1-.16-2.65-1.6-3.34Z"/>
        <path fill="#cad6e8" stroke-width="0" d="M420.29,143.59c.59,1.51,2.21,1.77,3.36,2.43,3.11,1.78,5.85,3.93,8.33,6.48,1.77,1.82,4.24,2.87,5.64,5.12,2.43,3.9,5.63,7.37,6.28,12.22.32,2.37,1.48,4.57,1.25,7.08-.5,5.49-1.76,10.61-5.21,15.16-2.34,3.08-4.57,6.17-7.74,8.46-.52.37-1.07.71-1.65.98-1.69.78-2.26.38-2.57-1.45-1.46-8.72-5.38-16.01-12.67-21.26-.85-.61-1.87-.99-2.78-1.53-2.08-1.26-3.31-3.07-3.43-5.54-.2-3.99-3.2-6.15-5.69-8.61-.9-.89-2.06-1.52-3.04-2.33-2.3-1.91-2.07-4.61-1.78-7.07.51-4.27,2.5-8.06,4.84-11.62,2.24-3.41,4.98-3.98,8.65-2.24,2.71,1.28,5.28,2.91,8.21,3.72,0,0-.01,0-.01,0Z"/>
      </g>
    </g>
  </g>
  <g id="Layer_2" data-name="Layer 2">
    <g>
      <g>
        <path fill="#fff" stroke-width="0" d="M123.14,299.01c1.71-2.46,2.99-5.21,3.84-8.28.85-3.06,1.28-6.43,1.28-10.1s-.42-7.01-1.27-10.06c-.85-3.05-2.13-5.8-3.85-8.26l1.9-1.1c1.94,2.81,3.38,5.8,4.34,8.96.96,3.16,1.43,6.65,1.43,10.46s-.48,7.32-1.43,10.5c-.96,3.18-2.4,6.16-4.34,8.96l-1.9-1.08Z"/>
        <path fill="#fff" stroke-width="0" d="M137.5,272.18c.41-.41.93-.61,1.55-.61s1.13.2,1.54.61c.4.41.61.9.61,1.5s-.2,1.1-.61,1.53c-.41.42-.92.64-1.54.64s-1.14-.21-1.55-.64c-.41-.42-.62-.93-.62-1.53s.21-1.09.62-1.5ZM137.5,286.02c.41-.41.93-.61,1.55-.61s1.13.2,1.54.61c.4.41.61.9.61,1.5s-.2,1.1-.61,1.53c-.41.42-.92.64-1.54.64s-1.14-.21-1.55-.64c-.41-.42-.62-.93-.62-1.53s.21-1.09.62-1.5Z"/>
        <path fill="#fff" stroke-width="0" d="M170.3,276c.78.48,1.44,1.12,1.97,1.93s1,1.71,1.41,2.71c.4.96.86,1.92,1.38,2.87s1.15,1.73,1.93,2.34c.77.61,1.74.92,2.9.92h.02v2.72h-.02c-1.58,0-2.88-.43-3.88-1.3s-1.84-2.07-2.5-3.62c-.04,1.49-.43,2.72-1.19,3.68-.75.96-1.85,1.44-3.28,1.44-.9,0-1.83-.1-2.8-.3s-1.99-.44-3.07-.7c-.82-.23-1.59-.41-2.32-.56s-1.33-.22-1.82-.22c-.84,0-1.43.24-1.78.72-.35.48-.53,1.26-.53,2.34v13.2h-2.72v-13.4c0-1.24.21-2.31.63-3.22s1.04-1.58,1.87-2.01c.83-.44,1.86-.57,3.1-.41.21-1.15.51-2.31.89-3.47s.87-2.22,1.47-3.18c.6-.96,1.34-1.73,2.22-2.32.88-.58,1.93-.87,3.14-.87s2.18.24,2.96.72ZM165.13,278.66c-.59.49-1.08,1.12-1.46,1.89-.39.77-.71,1.6-.96,2.49-.25.89-.46,1.73-.63,2.54.3.06.64.14,1,.24s.69.18,1,.26c.97.27,1.84.48,2.6.65s1.47.25,2.15.25c.94,0,1.61-.28,2.03-.84s.63-1.45.63-2.67c0-.86-.14-1.72-.41-2.56-.27-.85-.71-1.55-1.32-2.12s-1.43-.84-2.47-.84c-.85,0-1.57.24-2.15.73Z"/>
        <path fill="#fff" stroke-width="0" d="M179.17,293.79l2.58,2.58-2.58,2.56-2.58-2.56,2.58-2.58ZM188.57,278.5c.21,1.23.31,2.37.31,3.44,0,1.53-.27,2.86-.8,4s-1.38,2.01-2.54,2.62c-1.16.61-2.71.92-4.63.92h-1.01c-.2,0-.34-.1-.41-.3-.07-.2-.1-.55-.1-1.04s.04-.86.1-1.06c.07-.2.21-.3.41-.3h1.01c1.95,0,3.33-.43,4.14-1.28.81-.85,1.22-2.06,1.22-3.62,0-.89-.1-1.88-.3-2.97-.2-1.09-.46-2.29-.76-3.6l2.54-.7c.34,1.38.62,2.68.83,3.91ZM185.79,293.79l2.58,2.58-2.58,2.56-2.58-2.56,2.58-2.58Z"/>
        <path fill="#fff" stroke-width="0" d="M201.1,277.65c.63,2.19,1.1,4.08,1.41,5.67s.47,3.04.47,4.34c0,2-.38,3.78-1.15,5.33-.77,1.55-1.97,2.94-3.61,4.16s-3.79,2.34-6.45,3.35l-1.12-2.47c2.32-.9,4.18-1.83,5.58-2.8s2.43-2.06,3.07-3.28.96-2.63.96-4.23c0-1.15-.14-2.48-.43-3.97s-.73-3.25-1.34-5.26l2.6-.84Z"/>
        <path fill="#fff" stroke-width="0" d="M208.75,289.48v-25.63h2.72v25.63h-2.72Z"/>
        <path fill="#fff" stroke-width="0" d="M231.17,285.95c-.57.9-1.33,1.63-2.27,2.16s-1.99.93-3.15,1.17-2.33.36-3.5.36c-.91,0-1.82-.06-2.73-.19s-1.8-.3-2.68-.53l.61-2.58c.75.19,1.53.34,2.34.45s1.62.16,2.43.16c1.42,0,2.66-.16,3.73-.47s1.91-.8,2.51-1.46.9-1.5.9-2.53c0-1.32-.54-2.77-1.61-4.38s-2.7-3.37-4.86-5.31l1.78-2.11c1.53,1.35,2.85,2.69,3.94,4.02s1.94,2.64,2.53,3.95c.59,1.31.89,2.62.89,3.94s-.28,2.45-.85,3.35Z"/>
        <path fill="#fff" stroke-width="0" d="M247.16,275.71c-.52,1.89-.78,3.56-.78,5.01s.32,2.68.97,3.57,1.72,1.52,3.22,1.9,3.53.57,6.09.57c3.73,0,6.52-.37,8.35-1.12s2.75-1.88,2.75-3.4-.81-3.11-2.42-4.96-3.93-3.77-6.94-5.77v-2.72c2.51-1.41,5.07-2.66,7.68-3.78,2.61-1.11,5.3-2.09,8.06-2.92l.65,2.64c-2.68.85-5.12,1.71-7.3,2.59-2.18.88-4.25,1.83-6.2,2.86v.19c1.62,1.2,3.01,2.34,4.18,3.41s2.17,2.18,3.02,3.32,1.63,2.43,2.34,3.86c.76,1.51,1.51,2.68,2.25,3.52s1.58,1.43,2.52,1.77,2.09.5,3.46.5h.04v2.72h-.04c-1.54,0-2.9-.21-4.05-.64s-2.17-1.1-3.03-2.02-1.61-2.13-2.24-3.61c-.05,2.09-1.18,3.65-3.38,4.7s-5.44,1.57-9.72,1.57c-3.08,0-5.56-.29-7.44-.87s-3.26-1.51-4.11-2.78-1.28-2.94-1.28-5c0-1.73.28-3.65.85-5.73l2.53.63Z"/>
        <path fill="#fff" stroke-width="0" d="M277.71,293.79l2.58,2.58-2.58,2.56-2.58-2.56,2.58-2.58ZM288.84,283.98c.26.92.76,1.61,1.5,2.08s1.83.7,3.28.7h1.46v2.72h-1.54c-1.62,0-3.02-.37-4.2-1.1s-1.94-1.79-2.28-3.17c-.24.92-.7,1.71-1.39,2.34s-1.51,1.12-2.49,1.44-2.02.48-3.13.48h-1.01c-.2,0-.34-.1-.41-.3s-.1-.55-.1-1.04.04-.86.1-1.06.21-.3.41-.3h1.01c1.58,0,2.78-.24,3.59-.71s1.36-1.17,1.64-2.09.43-2.03.43-3.33v-2.64h2.73v2.64c0,1.32.13,2.43.39,3.35ZM284.33,293.79l2.58,2.58-2.58,2.56-2.58-2.56,2.58-2.58Z"/>
        <path fill="#fff" stroke-width="0" d="M306.61,274.65c.93.35,1.94.79,3.03,1.29,1.13.52,2.35,1.04,3.66,1.57s2.77.93,4.35,1.22v2.54l-7.59,5.05c-1.59,1.08-3.27,1.87-5.01,2.38s-3.64.77-5.68.77h-4.29c-.2,0-.34-.11-.41-.32s-.1-.56-.1-1.03.04-.83.1-1.04.21-.32.41-.32h4.65c1.16,0,2.26-.09,3.28-.28s2.02-.47,2.97-.84,1.9-.87,2.82-1.46l5.73-3.76c-1.28-.24-2.44-.57-3.48-1s-2-.84-2.88-1.24c-.81-.38-1.55-.7-2.22-.97s-1.32-.4-1.94-.4c-1.09,0-1.92.37-2.49,1.1s-.98,1.68-1.23,2.83l-.11.57-2.28-.44.13-.63c.35-1.8.99-3.27,1.9-4.41s2.25-1.72,4.01-1.72c.85,0,1.74.18,2.67.53ZM302.62,292.76l2.58,2.58-2.58,2.56-2.58-2.56,2.58-2.58ZM305.96,298.55l2.58,2.58-2.58,2.56-2.58-2.56,2.58-2.58ZM309.24,292.76l2.58,2.58-2.58,2.56-2.58-2.56,2.58-2.58Z"/>
        <path fill="#fff" stroke-width="0" d="M331.21,289.48h-2.26c-1.92,0-3.46-.45-4.61-1.36s-1.73-2.35-1.73-4.34c0-1.04.13-2.07.4-3.1s.66-1.97,1.2-2.81,1.21-1.52,2.02-2.02,1.78-.76,2.88-.76c1.32,0,2.42.35,3.31,1.05s1.61,1.63,2.15,2.79.94,2.42,1.21,3.79c.27,1.37.42,2.72.47,4.04h2.11v2.72h-2.18c-.25,2.63-1.54,4.84-3.87,6.62s-5.47,3.2-9.44,4.26l-1.03-2.51c3.48-.91,6.22-2.07,8.23-3.47,2.01-1.4,3.15-3.04,3.45-4.91h-2.3ZM333.41,283.71c-.18-1.04-.44-2.02-.8-2.92s-.82-1.64-1.4-2.19-1.29-.84-2.15-.84c-.91,0-1.66.29-2.25.86s-1.03,1.31-1.31,2.2-.43,1.81-.43,2.76c0,1.22.36,2.05,1.09,2.5s1.74.67,3.05.67h2.27c.77,0,1.52,0,2.27-.02-.05-.98-.16-1.98-.34-3.03Z"/>
        <path fill="#fff" stroke-width="0" d="M355.61,264.74c-2.67.85-5.1,1.71-7.28,2.59s-4.25,1.83-6.2,2.86v.19c3.11,2.27,5.43,4.39,6.95,6.38s2.28,3.96,2.28,5.9c0,1.47-.41,2.71-1.23,3.72s-2.03,1.78-3.64,2.31-3.57.79-5.9.79h-2.24c-.18,0-.31-.11-.39-.32s-.12-.56-.12-1.04.04-.83.12-1.03.21-.31.39-.31h2.18c2.7,0,4.72-.35,6.08-1.06s2.03-1.78,2.03-3.21c0-1.53-.78-3.2-2.34-5.01s-3.91-3.8-7.05-5.96v-2.72c4.97-2.81,10.21-5.04,15.72-6.7l.65,2.64Z"/>
        <path fill="#fff" stroke-width="0" d="M380.88,295.14c1.28-1.4,1.92-3.53,1.92-6.41v-24.89h2.72v24.89c0,2.52-.42,4.61-1.26,6.27s-2.07,2.9-3.69,3.71c-1.62.82-3.61,1.22-5.96,1.22-2.14,0-3.95-.37-5.43-1.11s-2.61-1.79-3.38-3.16-1.16-2.99-1.16-4.88c0-1.25.14-2.58.43-3.99.28-1.41.72-2.85,1.3-4.33l2.41.91c-.48,1.3-.85,2.57-1.11,3.8s-.39,2.34-.39,3.34c0,2.15.64,3.81,1.92,4.97s3.18,1.75,5.72,1.75c2.71,0,4.7-.7,5.98-2.1Z"/>
        <path fill="#fff" stroke-width="0" d="M411.28,263.84v17.64c0,1.95.41,3.32,1.22,4.1s2.23,1.18,4.24,1.18h.02v2.72h-.02c-2.44,0-4.3-.55-5.56-1.65s-1.97-2.78-2.11-5.05l-.02-1.04c-1.16,1.75-2.57,3.19-4.22,4.34s-3.58,2-5.78,2.56c-2.2.56-4.71.84-7.52.84v-2.72c2.99,0,5.55-.28,7.7-.85s3.98-1.47,5.49-2.72,2.79-2.86,3.84-4.86v-14.49h2.72ZM395.37,263.41c1.3,3.06,2.29,6.1,2.94,9.12s1.03,6.18,1.1,9.48l-2.64.25c-.05-2.11-.23-4.16-.52-6.14s-.73-3.94-1.29-5.88-1.26-3.89-2.1-5.85l2.51-.99Z"/>
        <path fill="#fff" stroke-width="0" d="M426.55,283.98c.26.92.76,1.61,1.5,2.08s1.83.7,3.28.7h1.46v2.72h-1.54c-1.62,0-3.02-.37-4.2-1.1s-1.94-1.79-2.28-3.17c-.24.92-.7,1.71-1.39,2.34s-1.51,1.12-2.49,1.44-2.02.48-3.13.48h-1.01c-.2,0-.34-.1-.41-.3s-.1-.55-.1-1.04.04-.86.1-1.06.21-.3.41-.3h1.01c1.58,0,2.78-.24,3.59-.71s1.36-1.17,1.64-2.09.43-2.03.43-3.33v-2.64h2.73v2.64c0,1.32.13,2.43.39,3.35ZM419.6,268.31l2.58,2.58-2.58,2.56-2.58-2.56,2.58-2.58ZM426.22,268.31l2.58,2.58-2.58,2.56-2.58-2.56,2.58-2.58Z"/>
        <path fill="#fff" stroke-width="0" d="M444.33,274.65c.93.35,1.94.79,3.03,1.29,1.13.52,2.35,1.04,3.66,1.57s2.77.93,4.35,1.22v2.54l-7.59,5.05c-1.59,1.08-3.27,1.87-5.01,2.38s-3.64.77-5.68.77h-4.29c-.2,0-.34-.11-.41-.32s-.1-.56-.1-1.03.04-.83.1-1.04.21-.32.41-.32h4.65c1.16,0,2.26-.09,3.28-.28s2.02-.47,2.97-.84,1.9-.87,2.82-1.46l5.73-3.76c-1.28-.24-2.44-.57-3.48-1s-2-.84-2.88-1.24c-.81-.38-1.55-.7-2.22-.97s-1.32-.4-1.94-.4c-1.09,0-1.92.37-2.49,1.1s-.98,1.68-1.23,2.83l-.11.57-2.28-.44.13-.63c.35-1.8.99-3.27,1.9-4.41s2.25-1.72,4.01-1.72c.85,0,1.74.18,2.67.53ZM444.6,263.39l2.58,2.58-2.58,2.56-2.58-2.56,2.58-2.58Z"/>
        <path fill="#fff" stroke-width="0" d="M460.95,289.48v-25.63h2.72v25.63h-2.72Z"/>
        <path fill="#fff" stroke-width="0" d="M487.99,270.39l2.72-.15.68,11.66c.11,1.75.6,2.99,1.44,3.74s2.3,1.12,4.37,1.12h.02v2.72h-.02c-2.01,0-3.6-.26-4.77-.78s-2.04-1.3-2.64-2.34c-.71.23-1.44.4-2.19.52s-1.5.18-2.23.18c-1.42,0-2.68-.2-3.78-.6s-1.97-.99-2.59-1.78-.94-1.75-.94-2.9c0-1.46.43-2.75,1.29-3.87s2.05-2.06,3.58-2.8,3.28-1.26,5.27-1.57l-.21-3.15ZM484.06,277.19c-1.14.53-1.99,1.17-2.54,1.91s-.84,1.52-.84,2.34c0,.95.42,1.7,1.25,2.24s2.04.82,3.61.82c.58,0,1.19-.04,1.81-.12s1.19-.2,1.7-.35c-.09-.28-.16-.58-.21-.89s-.09-.68-.11-1.08l-.36-5.94c-1.73.19-3.17.55-4.31,1.08Z"/>
        <path fill="#fff" stroke-width="0" d="M496.47,293.79l2.58,2.58-2.58,2.56-2.58-2.56,2.58-2.58ZM505.88,278.5c.21,1.23.31,2.37.31,3.44,0,1.53-.27,2.86-.8,4s-1.38,2.01-2.54,2.62-2.71.92-4.63.92h-1.01c-.2,0-.34-.1-.41-.3s-.1-.55-.1-1.04.04-.86.1-1.06.21-.3.41-.3h1.01c1.95,0,3.33-.43,4.14-1.28s1.22-2.06,1.22-3.62c0-.89-.1-1.88-.3-2.97s-.46-2.29-.76-3.6l2.54-.7c.34,1.38.62,2.68.83,3.91ZM503.1,293.79l2.58,2.58-2.58,2.56-2.58-2.56,2.58-2.58Z"/>
        <path fill="#fff" stroke-width="0" d="M540.48,277.67c.48,1.29.9,2.52,1.24,3.68s.62,2.31.81,3.44.28,2.29.28,3.49c0,1.78-.29,3.36-.86,4.73s-1.41,2.52-2.5,3.45-2.41,1.63-3.96,2.11-3.3.71-5.25.71c-4.11,0-7.19-.96-9.24-2.88s-3.07-4.69-3.07-8.31c0-1.35.13-2.82.38-4.4s.62-3.23,1.1-4.95l2.51.78c-.37,1.48-.68,2.94-.94,4.38s-.39,2.77-.39,4c0,1.91.35,3.51,1.04,4.79s1.76,2.25,3.2,2.89,3.26.96,5.48.96,3.99-.32,5.44-.97,2.53-1.58,3.26-2.8,1.08-2.7,1.08-4.43c0-1.39-.19-2.89-.58-4.49s-.91-3.29-1.57-5.06l2.53-1.12ZM530.29,279.79l2.58,2.58-2.58,2.56-2.58-2.56,2.58-2.58Z"/>
        <path fill="#fff" stroke-width="0" d="M567.48,263.84v11.52c0,2.87-.3,5.23-.89,7.06s-1.54,3.27-2.84,4.29-2.98,1.74-5.05,2.15-4.59.61-7.55.61h-3.42v-2.72h3.51c2.38,0,4.42-.12,6.13-.35s3.11-.71,4.2-1.44,1.89-1.82,2.41-3.27.78-3.38.78-5.8v-12.06h2.72ZM551.29,263.41c.86,2.01,1.59,4.03,2.17,6.06s1.04,4.08,1.37,6.18.51,4.26.56,6.5l-2.64.25c-.05-2.14-.23-4.22-.54-6.23s-.75-4-1.33-5.95-1.27-3.9-2.1-5.82l2.51-.99Z"/>
        <path fill="#fff" stroke-width="0" d="M574.15,289.48v-25.63h2.72v25.63h-2.72Z"/>
      </g>
      <g>
        <path fill="#ccd5e2" stroke-width="0" d="M155.95,342.43c.31-.3.7-.46,1.16-.46s.85.15,1.15.46.46.68.46,1.12-.15.83-.46,1.15c-.3.32-.69.48-1.15.48s-.85-.16-1.16-.48c-.31-.32-.46-.7-.46-1.15s.15-.82.46-1.12ZM156.23,339.16l-.14-13.71h2.05l-.14,13.71h-1.77Z"/>
        <path fill="#ccd5e2" stroke-width="0" d="M175.48,334.92c.59.36,1.08.84,1.48,1.45.4.6.75,1.28,1.05,2.03.3.72.65,1.44,1.03,2.15.39.71.87,1.3,1.45,1.76.58.46,1.31.69,2.18.69h.01v2.04h-.01c-1.19,0-2.16-.33-2.91-.98-.75-.65-1.38-1.55-1.87-2.71-.03,1.12-.33,2.04-.89,2.76s-1.38,1.08-2.46,1.08c-.67,0-1.37-.08-2.1-.23-.73-.15-1.49-.33-2.3-.53-.62-.17-1.2-.31-1.74-.42-.54-.11-1-.16-1.37-.16-.63,0-1.07.18-1.34.54s-.4.94-.4,1.75v9.9h-2.04v-10.05c0-.93.16-1.74.47-2.41.31-.68.78-1.18,1.4-1.51.62-.33,1.4-.43,2.33-.31.16-.86.38-1.73.67-2.6.28-.87.65-1.66,1.1-2.39.45-.72,1.01-1.3,1.67-1.74s1.45-.66,2.36-.66,1.63.18,2.22.54ZM171.6,336.92c-.44.37-.81.84-1.1,1.42s-.53,1.2-.72,1.86c-.19.67-.35,1.3-.47,1.91.23.05.48.11.75.18.27.07.52.13.75.19.73.2,1.38.36,1.95.49s1.11.18,1.61.18c.7,0,1.21-.21,1.52-.63.31-.42.47-1.09.47-2,0-.65-.1-1.29-.31-1.92s-.53-1.16-.99-1.59c-.46-.42-1.07-.63-1.85-.63-.64,0-1.18.18-1.62.55Z"/>
        <path fill="#ccd5e2" stroke-width="0" d="M181.68,348.26l1.94,1.94-1.94,1.92-1.94-1.92,1.94-1.94ZM190.03,340.9c.19.69.57,1.21,1.12,1.56.56.35,1.38.53,2.46.53h1.1v2.04h-1.15c-1.22,0-2.26-.28-3.15-.83s-1.45-1.34-1.71-2.38c-.18.69-.53,1.28-1.04,1.76-.51.48-1.13.84-1.87,1.08-.73.24-1.51.36-2.35.36h-.75c-.15,0-.25-.08-.31-.23-.05-.15-.08-.41-.08-.78s.03-.64.08-.8c.05-.15.15-.23.31-.23h.75c1.19,0,2.08-.18,2.69-.53.61-.36,1.02-.88,1.23-1.57.21-.69.32-1.52.32-2.5v-1.98h2.05v1.98c0,.99.1,1.83.29,2.51ZM186.65,348.26l1.94,1.94-1.94,1.92-1.94-1.92,1.94-1.94Z"/>
        <path fill="#ccd5e2" stroke-width="0" d="M195.83,327.01l1.94,1.94-1.94,1.92-1.94-1.92,1.94-1.94ZM201.21,336.8c.16.92.23,1.78.23,2.58,0,1.15-.2,2.15-.6,3-.4.85-1.04,1.5-1.91,1.97-.87.46-2.03.69-3.47.69h-.75c-.15,0-.25-.08-.31-.23-.05-.15-.08-.41-.08-.78s.03-.64.08-.8c.05-.15.15-.23.31-.23h.75c1.46,0,2.5-.32,3.11-.96.61-.64.91-1.55.91-2.71,0-.66-.08-1.41-.23-2.23-.15-.82-.34-1.72-.57-2.7l1.91-.53c.26,1.03.46,2.01.62,2.93ZM200.8,327.01l1.94,1.94-1.94,1.92-1.94-1.92,1.94-1.94Z"/>
        <path fill="#ccd5e2" stroke-width="0" d="M209.17,336.15l.76,2.75c.29,1.05.63,1.88,1,2.47.37.59.86,1.01,1.46,1.25.6.24,1.37.36,2.32.36h.01v2.04h-.01c-.99,0-1.86-.17-2.62-.5-.76-.33-1.33-.81-1.71-1.42.08,1.68-.14,3.14-.68,4.37-.54,1.23-1.43,2.32-2.66,3.25-1.23.94-2.85,1.79-4.86,2.56l-.84-1.85c1.74-.67,3.13-1.37,4.19-2.1,1.05-.73,1.82-1.55,2.3-2.47.48-.92.72-1.99.72-3.22,0-.84-.11-1.83-.33-2.95-.22-1.12-.55-2.42-1-3.92l1.95-.63Z"/>
        <path fill="#ccd5e2" stroke-width="0" d="M214.47,344.8c-.06-.15-.09-.41-.09-.78s.03-.64.09-.8c.06-.15.16-.23.31-.23h2.25c.14-.23.28-.45.43-.67s.28-.43.41-.64v-15.88h2.02v10.2c0,.67-.01,1.31-.04,1.91-.02.6-.08,1.21-.16,1.84,1.27-1.73,2.56-3.04,3.87-3.92,1.31-.89,2.6-1.33,3.88-1.33,1.06,0,1.95.23,2.7.68.75.45,1.31,1.05,1.7,1.81.39.76.58,1.6.58,2.53,0,.47-.06.89-.16,1.28-.11.39-.26.75-.45,1.07.4.36.88.64,1.45.84s1.25.3,2.03.3h.01v2.04h-.01c-1.09,0-1.98-.17-2.67-.51-.69-.34-1.29-.77-1.8-1.3-.8.69-1.83,1.17-3.1,1.42-1.27.26-2.64.39-4.11.39h-8.84c-.15,0-.26-.08-.31-.23ZM223.97,342.99c.81,0,1.59-.04,2.34-.13s1.42-.25,2.02-.49c.59-.24,1.06-.59,1.41-1.04.35-.45.52-1.05.52-1.79,0-.89-.27-1.62-.82-2.19-.55-.57-1.3-.85-2.26-.85-.63,0-1.34.19-2.13.55-.79.37-1.66,1.03-2.6,1.97-.94.94-1.96,2.26-3.05,3.96h4.57ZM227.4,326.98l1.94,1.94-1.94,1.92-1.94-1.92,1.94-1.94Z"/>
        <path fill="#ccd5e2" stroke-width="0" d="M242.66,340.9c.19.69.57,1.21,1.12,1.56.56.35,1.38.53,2.46.53h1.1v2.04h-1.15c-1.22,0-2.26-.28-3.15-.83s-1.45-1.34-1.71-2.38c-.18.69-.53,1.28-1.04,1.76-.51.48-1.13.84-1.86,1.08-.73.24-1.51.36-2.35.36h-.75c-.15,0-.25-.08-.31-.23-.05-.15-.08-.41-.08-.78s.03-.64.08-.8c.05-.15.15-.23.31-.23h.75c1.19,0,2.08-.18,2.69-.53.61-.36,1.02-.88,1.23-1.57.21-.69.32-1.52.32-2.5v-1.98h2.05v1.98c0,.99.1,1.83.29,2.51ZM237.44,329.15l1.94,1.94-1.94,1.92-1.94-1.92,1.94-1.94ZM242.41,329.15l1.94,1.94-1.94,1.92-1.94-1.92,1.94-1.94Z"/>
        <path fill="#ccd5e2" stroke-width="0" d="M254.68,340.9c.19.69.57,1.21,1.12,1.56.56.35,1.38.53,2.46.53h1.1v2.04h-1.15c-1.22,0-2.26-.28-3.15-.83s-1.45-1.34-1.71-2.38c-.18.69-.53,1.28-1.04,1.76-.51.48-1.13.84-1.86,1.08-.73.24-1.51.36-2.35.36h-.75c-.15,0-.25-.08-.31-.23-.05-.15-.08-.41-.08-.78s.03-.64.08-.8c.05-.15.15-.23.31-.23h.75c1.19,0,2.08-.18,2.69-.53.61-.36,1.02-.88,1.23-1.57.21-.69.32-1.52.32-2.5v-1.98h2.05v1.98c0,.99.1,1.83.29,2.51ZM251.85,329.15l1.94,1.94-1.94,1.92-1.94-1.92,1.94-1.94Z"/>
        <path fill="#ccd5e2" stroke-width="0" d="M261.51,342.37c.56-.41,1.04-.95,1.44-1.61.4-.66.77-1.35,1.11-2.06.37-.75.76-1.46,1.17-2.14s.91-1.22,1.49-1.64,1.33-.63,2.24-.63c.99,0,1.85.3,2.58.89.74.59,1.31,1.35,1.72,2.27.41.92.61,1.88.61,2.86,0,1.45-.42,2.63-1.25,3.52-.84.89-1.96,1.34-3.38,1.34-1.03,0-2-.25-2.88-.74-.89-.49-1.69-1.16-2.4-1.99-.5.74-1.1,1.35-1.82,1.84-.72.49-1.65.73-2.78.73-.15,0-.25-.08-.31-.23-.05-.15-.08-.41-.08-.78s.03-.64.08-.8c.05-.15.15-.23.31-.23.87,0,1.59-.21,2.15-.62ZM266.99,342.56c.7.4,1.45.6,2.26.6s1.49-.25,2.01-.77.78-1.21.78-2.08c0-.63-.14-1.26-.41-1.87-.28-.61-.65-1.12-1.12-1.52-.47-.4-1-.6-1.59-.6s-1.04.15-1.45.44c-.4.29-.76.69-1.07,1.2-.31.51-.62,1.1-.92,1.77l-.51,1.1c.64.76,1.32,1.34,2.01,1.74Z"/>
        <path fill="#ccd5e2" stroke-width="0" d="M287.27,341.88c.44.29.66.77.66,1.42,0,.55-.16.99-.48,1.33-.32.34-.74.51-1.27.51-.64,0-1.14-.23-1.51-.71-.37-.47-.56-1.15-.56-2.04,0-1.18.23-2.26.69-3.23.46-.98,1.12-1.88,1.97-2.71l.91.95c-.64.64-1.14,1.3-1.5,1.99-.36.69-.57,1.43-.62,2.23.69-.12,1.26-.04,1.7.26Z"/>
        <path fill="#ccd5e2" stroke-width="0" d="M302.57,342.38c-.43.68-1,1.22-1.7,1.62-.71.4-1.5.7-2.36.88-.87.18-1.74.27-2.63.27-.68,0-1.37-.05-2.05-.14-.68-.09-1.35-.23-2.01-.4l.46-1.94c.56.14,1.14.25,1.75.33.61.08,1.21.12,1.82.12,1.06,0,1.99-.12,2.8-.36.8-.24,1.43-.6,1.88-1.1.45-.49.68-1.12.68-1.89,0-.99-.4-2.08-1.21-3.28-.81-1.2-2.02-2.53-3.65-3.98l1.34-1.58c1.15,1.02,2.13,2.02,2.96,3.01.82.99,1.45,1.98,1.9,2.96.45.98.67,1.97.67,2.96s-.21,1.83-.64,2.51Z"/>
        <path fill="#ccd5e2" stroke-width="0" d="M310.95,336.15l.76,2.75c.29,1.05.63,1.88,1,2.47.37.59.86,1.01,1.46,1.25.6.24,1.37.36,2.32.36h.01v2.04h-.01c-.99,0-1.86-.17-2.62-.5-.76-.33-1.33-.81-1.71-1.42.08,1.68-.14,3.14-.68,4.37-.54,1.23-1.43,2.32-2.66,3.25-1.23.94-2.85,1.79-4.86,2.56l-.84-1.85c1.74-.67,3.13-1.37,4.19-2.1,1.05-.73,1.82-1.55,2.3-2.47.48-.92.72-1.99.72-3.22,0-.84-.11-1.83-.33-2.95-.22-1.12-.55-2.42-1-3.92l1.95-.63Z"/>
        <path fill="#ccd5e2" stroke-width="0" d="M329.44,326.47c-2,.64-3.82,1.28-5.46,1.94-1.64.66-3.19,1.37-4.65,2.14v.14c2.34,1.7,4.07,3.29,5.21,4.78s1.71,2.97,1.71,4.43c0,1.1-.31,2.03-.92,2.79-.62.76-1.53,1.34-2.73,1.73-1.2.39-2.67.59-4.42.59h-1.68c-.13,0-.23-.08-.29-.24-.06-.16-.09-.42-.09-.78s.03-.62.09-.78c.06-.16.16-.24.29-.24h1.64c2.02,0,3.54-.26,4.56-.8,1.01-.53,1.52-1.33,1.52-2.41,0-1.15-.59-2.4-1.76-3.76-1.17-1.36-2.94-2.85-5.29-4.47v-2.04c3.73-2.11,7.66-3.78,11.79-5.03l.48,1.98ZM328.09,322.01c-1.9.45-3.79,1.06-5.66,1.83-1.87.77-3.63,1.68-5.28,2.71l-.66-1.06c1.7-1.07,3.52-2,5.46-2.8,1.94-.79,3.89-1.42,5.86-1.89l.27,1.2Z"/>
        <path fill="#ccd5e2" stroke-width="0" d="M335.13,336.15l.76,2.75c.29,1.05.63,1.88,1,2.47.37.59.86,1.01,1.46,1.25.6.24,1.37.36,2.32.36h.01v2.04h-.01c-.99,0-1.86-.17-2.62-.5-.76-.33-1.33-.81-1.71-1.42.08,1.68-.14,3.14-.68,4.37-.54,1.23-1.43,2.32-2.66,3.25-1.23.94-2.85,1.79-4.86,2.56l-.84-1.85c1.74-.67,3.13-1.37,4.19-2.1,1.05-.73,1.82-1.55,2.3-2.47.48-.92.72-1.99.72-3.22,0-.84-.11-1.83-.33-2.95-.22-1.12-.55-2.42-1-3.92l1.95-.63Z"/>
        <path fill="#ccd5e2" stroke-width="0" d="M347.18,336.8c.16.92.23,1.78.23,2.58,0,1.15-.2,2.15-.6,3-.4.85-1.04,1.5-1.91,1.97-.87.46-2.03.69-3.47.69h-.75c-.15,0-.25-.08-.31-.23-.05-.15-.08-.41-.08-.78s.03-.64.08-.8c.05-.15.15-.23.31-.23h.75c1.46,0,2.5-.32,3.11-.96.61-.64.91-1.55.91-2.71,0-.66-.08-1.41-.23-2.23-.15-.82-.34-1.72-.57-2.7l1.91-.53c.26,1.03.46,2.01.62,2.93ZM342.72,348.26l1.94,1.94-1.94,1.92-1.94-1.92,1.94-1.94Z"/>
        <path fill="#ccd5e2" stroke-width="0" d="M364.6,330.72l2.04-.11.51,8.74c.09,1.31.45,2.25,1.08,2.81s1.73.84,3.28.84h.01v2.04h-.01c-1.51,0-2.7-.19-3.57-.58s-1.53-.97-1.98-1.75c-.53.17-1.08.3-1.64.39-.57.09-1.12.13-1.67.13-1.06,0-2.01-.15-2.83-.45-.82-.3-1.47-.74-1.94-1.33-.47-.59-.7-1.31-.7-2.18,0-1.09.32-2.06.97-2.9.64-.84,1.54-1.55,2.68-2.1,1.14-.56,2.46-.95,3.95-1.18l-.16-2.36ZM361.66,335.81c-.85.4-1.49.88-1.91,1.43-.42.55-.63,1.14-.63,1.76,0,.71.31,1.27.94,1.68s1.53.61,2.7.61c.44,0,.89-.03,1.36-.09.47-.06.9-.15,1.27-.26-.07-.21-.12-.43-.16-.67-.04-.24-.07-.51-.09-.81l-.27-4.46c-1.3.14-2.38.41-3.23.81Z"/>
        <path fill="#ccd5e2" stroke-width="0" d="M384.47,326.47c-2,.64-3.82,1.28-5.46,1.94-1.64.66-3.19,1.37-4.65,2.14v.14c1.22.89,2.28,1.75,3.17,2.58.89.82,1.66,1.68,2.31,2.56.65.88,1.23,1.86,1.74,2.93.53,1.08,1.07,1.93,1.6,2.54.54.61,1.16,1.04,1.87,1.3.71.25,1.58.38,2.61.38v2.04c-1.17,0-2.19-.16-3.07-.48-.88-.32-1.64-.83-2.29-1.52-.65-.7-1.22-1.6-1.7-2.71,0,1.57-.63,2.74-1.86,3.53-1.23.79-3.05,1.18-5.45,1.18h-1.75c-.13,0-.23-.08-.29-.24-.06-.16-.09-.42-.09-.78s.03-.62.09-.78c.06-.16.16-.24.29-.24h1.72c1.98,0,3.48-.27,4.49-.8,1.01-.54,1.51-1.34,1.51-2.4,0-1.18-.6-2.45-1.79-3.81-1.2-1.36-2.95-2.84-5.25-4.42v-2.04c3.73-2.11,7.66-3.78,11.79-5.03l.48,1.98ZM383.11,322.01c-1.9.45-3.79,1.06-5.66,1.83-1.87.77-3.63,1.68-5.28,2.71l-.66-1.06c1.7-1.07,3.52-2,5.46-2.8,1.94-.79,3.89-1.42,5.86-1.89l.27,1.2Z"/>
        <path fill="#ccd5e2" stroke-width="0" d="M387.1,348.26l1.94,1.94-1.94,1.92-1.94-1.92,1.94-1.94ZM394.16,336.8c.16.92.23,1.78.23,2.58,0,1.15-.2,2.15-.6,3-.4.85-1.04,1.5-1.91,1.97-.87.46-2.03.69-3.47.69h-.75c-.15,0-.25-.08-.31-.23-.05-.15-.08-.41-.08-.78s.03-.64.08-.8c.05-.15.15-.23.31-.23h.75c1.46,0,2.5-.32,3.11-.96.61-.64.91-1.55.91-2.71,0-.66-.08-1.41-.23-2.23-.15-.82-.34-1.72-.57-2.7l1.91-.53c.26,1.03.46,2.01.62,2.93ZM392.07,348.26l1.94,1.94-1.94,1.92-1.94-1.92,1.94-1.94Z"/>
        <path fill="#ccd5e2" stroke-width="0" d="M408.12,342.38c-.43.68-1,1.22-1.7,1.62-.71.4-1.5.7-2.36.88-.87.18-1.74.27-2.63.27-.68,0-1.37-.05-2.05-.14-.68-.09-1.35-.23-2.01-.4l.46-1.94c.56.14,1.14.25,1.75.33.61.08,1.21.12,1.82.12,1.06,0,1.99-.12,2.8-.36.8-.24,1.43-.6,1.88-1.1.45-.49.68-1.12.68-1.89,0-.99-.4-2.08-1.21-3.28-.81-1.2-2.02-2.53-3.65-3.98l1.34-1.58c1.15,1.02,2.13,2.02,2.96,3.01.82.99,1.45,1.98,1.9,2.96.45.98.67,1.97.67,2.96s-.21,1.83-.64,2.51Z"/>
        <path fill="#ccd5e2" stroke-width="0" d="M439.83,337.84c-.08.55-.12,1.12-.12,1.71,0,.64.1,1.22.31,1.74.21.52.6.94,1.17,1.25.58.31,1.42.46,2.53.46h.01v2.04h-.01c-1.65,0-2.94-.34-3.87-1.01-.93-.67-1.53-1.65-1.81-2.93-.93,1.45-2.33,2.47-4.19,3.06-1.86.59-4.08.88-6.66.88-2.31,0-4.16-.27-5.57-.8-1.41-.53-2.44-1.3-3.08-2.3-.64-1-.96-2.2-.96-3.6,0-.67.07-1.4.21-2.16.14-.77.35-1.54.61-2.32l1.84.57c-.25.7-.43,1.37-.55,2-.12.63-.19,1.23-.19,1.79,0,1.07.27,1.97.81,2.68.54.71,1.4,1.24,2.58,1.59,1.18.35,2.73.52,4.63.52s3.51-.14,4.8-.43,2.34-.72,3.13-1.31,1.41-1.34,1.84-2.25c.43-.91.74-1.99.93-3.23l1.88.3c-.11.63-.21,1.22-.29,1.77ZM426.39,331.78l1.94,1.94-1.94,1.92-1.94-1.92,1.94-1.94ZM431.36,331.78l1.94,1.94-1.94,1.92-1.94-1.92,1.94-1.94Z"/>
        <path fill="#ccd5e2" stroke-width="0" d="M448.21,340.39c.34.53.79.94,1.33,1.22.55.29,1.13.44,1.74.44.18,0,.45-.03.82-.08.36-.05.74-.11,1.12-.18l4.36-.82.36,1.99-7.4,1.42c-1.1.2-2.17.36-3.2.47s-2.01.17-2.92.17h-.67c-.15,0-.25-.08-.31-.25-.05-.17-.08-.42-.08-.76s.03-.6.08-.77c.05-.17.15-.26.31-.26h.61c.59,0,1.18-.03,1.79-.08.6-.05,1.28-.14,2.04-.25-.72-.37-1.32-.9-1.8-1.59-.48-.69-.72-1.54-.72-2.53,0-1.29.29-2.42.86-3.37.57-.96,1.33-1.7,2.27-2.23.94-.53,1.94-.79,3.02-.79s1.98.18,2.73.55c.75.37,1.45.92,2.12,1.64l-1.2,1.44c-.49-.5-1.03-.9-1.62-1.18-.6-.28-1.26-.43-1.99-.43s-1.37.17-2,.51c-.63.34-1.15.84-1.54,1.49-.4.65-.6,1.44-.6,2.37,0,.71.17,1.33.51,1.86Z"/>
        <path fill="#ccd5e2" stroke-width="0" d="M463.9,325.8v13.23c0,1.41.29,2.42.87,3.03.58.62,1.66.92,3.25.92v2.04c-2.03,0-3.57-.5-4.6-1.49-1.03-.99-1.55-2.49-1.55-4.48v-13.26h2.04Z"/>
        <path fill="#ccd5e2" stroke-width="0" d="M480,342.21c.47-.53.76-1.39.86-2.58l.23-2.66,1.86.16-.18,2.41c-.09,1.2.1,2.07.58,2.63.49.56,1.21.83,2.16.83,1.72,0,2.58-1.04,2.58-3.12,0-.33-.02-.74-.06-1.21-.04-.47-.09-.96-.15-1.46-.06-.5-.13-.95-.21-1.35l1.97-.47c.08.4.16.87.23,1.4.07.54.13,1.07.17,1.61.04.54.06,1.02.06,1.45,0,1.72-.36,3.01-1.09,3.88-.73.87-1.81,1.3-3.25,1.3-1.07,0-1.95-.23-2.62-.71-.68-.47-1.13-1.14-1.35-2.02-.53,1.81-1.83,2.72-3.9,2.72-1.1,0-1.98-.27-2.65-.8s-1.09-1.3-1.27-2.32c-.3.93-.92,1.68-1.87,2.26-.95.57-2.06.86-3.35.86h-.75c-.13,0-.23-.08-.29-.25-.06-.17-.09-.43-.09-.79s.03-.61.09-.76c.06-.16.16-.24.29-.24h.75c1.43,0,2.5-.35,3.21-1.05.71-.7,1.14-1.86,1.3-3.48l.2-2.18,2.05.19-.27,2.79c-.12,1.21.05,2.13.51,2.76.46.64,1.19.96,2.2.97.88.01,1.56-.25,2.03-.78Z"/>
        <path fill="#ccd5e2" stroke-width="0" d="M511.18,340.18c.47,1.07,1.02,1.81,1.65,2.21s1.46.6,2.48.6h.26v2.04h-.27c-1.19,0-2.23-.23-3.14-.68-.91-.46-1.63-1.22-2.16-2.31-.58,1.03-1.4,1.82-2.45,2.34s-2.18.79-3.38.79c-.93,0-1.86-.17-2.8-.5-.94-.33-1.8-.84-2.58-1.52l1.01-1.64c.67.56,1.39.97,2.14,1.23.75.26,1.5.39,2.23.39.99,0,1.91-.23,2.78-.68.87-.45,1.57-1.11,2.11-1.99l-3.72-8.42,1.94-.92,3.89,9.06Z"/>
        <path fill="#ccd5e2" stroke-width="0" d="M522.9,340.9c.19.69.57,1.21,1.12,1.56.56.35,1.38.53,2.46.53h1.1v2.04h-1.15c-1.22,0-2.26-.28-3.15-.83s-1.45-1.34-1.71-2.38c-.18.69-.53,1.28-1.04,1.76-.51.48-1.13.84-1.86,1.08-.73.24-1.51.36-2.35.36h-.75c-.15,0-.25-.08-.31-.23-.05-.15-.08-.41-.08-.78s.03-.64.08-.8c.05-.15.15-.23.31-.23h.75c1.19,0,2.08-.18,2.69-.53.61-.36,1.02-.88,1.23-1.57.21-.69.32-1.52.32-2.5v-1.98h2.05v1.98c0,.99.1,1.83.29,2.51ZM520.08,329.15l1.94,1.94-1.94,1.92-1.94-1.92,1.94-1.94Z"/>
        <path fill="#ccd5e2" stroke-width="0" d="M536.23,333.91c.7.27,1.45.59,2.27.97.84.39,1.76.78,2.75,1.17.99.39,2.07.7,3.26.92v1.91l-5.7,3.79c-1.2.81-2.45,1.4-3.76,1.79-1.31.38-2.73.58-4.26.58h-3.22c-.15,0-.25-.08-.31-.24-.05-.16-.08-.42-.08-.77s.03-.62.08-.78c.05-.16.15-.24.31-.24h3.49c.87,0,1.7-.07,2.46-.21.77-.14,1.51-.35,2.23-.63.72-.28,1.42-.65,2.12-1.1l4.3-2.82c-.96-.18-1.83-.43-2.61-.75-.78-.32-1.5-.63-2.16-.93-.61-.28-1.16-.53-1.67-.73s-.99-.3-1.45-.3c-.82,0-1.44.28-1.87.83s-.74,1.26-.92,2.12l-.09.43-1.71-.33.1-.47c.27-1.35.74-2.45,1.42-3.31.68-.86,1.68-1.29,3.01-1.29.63,0,1.3.13,2,.4ZM533.23,347.49l1.94,1.94-1.94,1.92-1.94-1.92,1.94-1.94ZM535.74,351.83l1.94,1.94-1.94,1.92-1.94-1.92,1.94-1.94ZM538.2,347.49l1.94,1.94-1.94,1.92-1.94-1.92,1.94-1.94Z"/>
      </g>
    </g>
  </g>
  <g id="Layer_4" data-name="Layer 4">
    <path fill="#0b58da" stroke-width="0" d="M327.51,164.56l-.71.19c-2.41.64-4.9-.03-6.67-1.8-1.76-1.77-2.43-4.26-1.77-6.67l9.15-33.91c.65-2.41,2.48-4.23,4.89-4.87h0c2.17-.58,4.4-.09,6.11,1.3h.04s.54.51.54.51l26.31,26.42-12.28,3.27-16.83-16.89-8.78,32.47ZM333.05,119.94c-1.52.41-2.68,1.56-3.09,3.08l-9.15,33.91c-.41,1.52,0,3.1,1.12,4.22.95.95,2.22,1.4,3.52,1.27l9.53-35.24,18.9,18.97,6.61-1.76-22.69-22.78.1-.27-.67-.3c-1.11-1.06-2.69-1.48-4.18-1.08h0Z"/>
    <path fill="#0b58da" stroke-width="0" d="M370.2,153.2l-36.07,9.58,3.31-12.26,23.06-6.13-23.61-23.71.08-.83c.65-2.41,2.48-4.24,4.89-4.88h0c2.41-.64,4.9.03,6.67,1.8l24.79,24.88c1.76,1.77,2.43,4.26,1.77,6.67-.65,2.41-2.48,4.23-4.89,4.87M337.73,159.2l31.8-8.44c1.54-.41,2.7-1.56,3.11-3.08.41-1.52,0-3.1-1.12-4.22l-24.79-24.88c-1.11-1.12-2.69-1.54-4.21-1.14h0c-1.3.35-2.33,1.23-2.86,2.43l25.75,25.86-25.89,6.89-1.78,6.59Z"/>
    <path fill="#0b58da" stroke-width="0" d="M367.66,162.63l-33.97,9.04c-2.41.64-4.9-.03-6.67-1.8-1.76-1.77-2.43-4.26-1.78-6.67l9.74-36.01,8.96,9.01-6.22,23,32.56-8.64.54.58c1.71,1.72,2.37,4.21,1.72,6.62-.65,2.41-2.48,4.23-4.89,4.87M327.63,164.18c-.26,1.46.17,2.87,1.19,3.89,1.11,1.12,2.69,1.54,4.21,1.14l33.97-9.04c1.53-.41,2.68-1.56,3.09-3.08.35-1.3.1-2.63-.67-3.68l-35.3,9.37,6.98-25.84-4.82-4.85-8.66,32.09Z"/>
  </g>
</svg>