<svg width="250" height="250" viewBox="0 0 250 250" fill="none" xmlns="http://www.w3.org/2000/svg">
<path d="M207.915 115.051C206.482 97.9157 200.694 81.4308 191.1 67.1609C175.73 44.4359 150.645 32.1609 123.355 38.8509C97.55 45.1809 91 73.1209 69.5 85.5009C53 95.0009 28 110.501 32 138.001C33.305 146.966 39.24 153.501 47.38 157.186C58.51 162.211 74.075 160.186 84 167.501C95.5 176.001 105 188.001 130 197.001C149.775 204.121 172.075 195.601 187 182.126C205.41 165.541 210 138.796 207.915 115.051Z" fill="#2860E6"/>
<path opacity="0.7" d="M207.915 115.051C206.482 97.9157 200.694 81.4308 191.1 67.1609C175.73 44.4359 150.645 32.1609 123.355 38.8509C97.55 45.1809 91 73.1209 69.5 85.5009C53 95.0009 28 110.501 32 138.001C33.305 146.966 39.24 153.501 47.38 157.186C58.51 162.211 74.075 160.186 84 167.501C95.5 176.001 105 188.001 130 197.001C149.775 204.121 172.075 195.601 187 182.126C205.41 165.541 210 138.796 207.915 115.051Z" fill="white"/>
<path d="M188.6 164.714L114.325 185.619C113.523 185.816 112.68 185.753 111.916 185.438C111.153 185.124 110.51 184.574 110.08 183.869L53.755 82.4991C53.564 82.1979 53.4489 81.8548 53.4196 81.4994C53.3903 81.1439 53.4477 80.7866 53.5869 80.4582C53.726 80.1297 53.9427 79.84 54.2185 79.6137C54.4942 79.3875 54.8207 79.2315 55.17 79.1591L129.445 58.2541C130.245 58.056 131.088 58.1184 131.851 58.4322C132.613 58.7461 133.256 59.295 133.685 59.9991L190 161.369C190.191 161.67 190.306 162.012 190.336 162.367C190.367 162.722 190.31 163.079 190.173 163.407C190.035 163.735 189.821 164.026 189.547 164.253C189.273 164.481 188.948 164.639 188.6 164.714Z" fill="#263238" stroke="black" stroke-miterlimit="10"/>
<path d="M113.28 181.174C113.28 181.174 156.2 170.964 185.09 160.959L113.28 181.174Z" fill="#884849"/>
<path d="M185.09 160.959L113.28 181.174L57.735 81.2139L129.545 61.0039L185.09 160.959Z" fill="white" stroke="#263238" stroke-miterlimit="10"/>
<path d="M108.275 82.1755L113.85 80.6055" stroke="#263238" stroke-miterlimit="10"/>
<path d="M69.605 93.0587L103.96 83.3887" stroke="#263238" stroke-miterlimit="10"/>
<path d="M102.16 88.3844L116.01 84.4844" stroke="#263238" stroke-miterlimit="10"/>
<path d="M80.935 94.3592L98.38 89.4492" stroke="#263238" stroke-miterlimit="10"/>
<path d="M71.76 96.9395L77.695 95.2695" stroke="#263238" stroke-miterlimit="10"/>
<path d="M91.185 95.9641L118.17 88.3691" stroke="#263238" stroke-miterlimit="10"/>
<path d="M73.92 100.825L85.25 97.6348" stroke="#263238" stroke-miterlimit="10"/>
<path d="M133.28 79.2499C132.57 78.0889 131.509 77.1834 130.251 76.664C128.993 76.1446 127.602 76.0381 126.28 76.3599C123.695 77.0899 122.65 79.5599 123.94 81.8849C124.649 83.0477 125.709 83.9546 126.968 84.4742C128.226 84.9938 129.618 85.0991 130.94 84.7749C133.5 84.0499 134.57 81.5749 133.28 79.2499Z" fill="white" stroke="#263238" stroke-miterlimit="10"/>
<path d="M84.8 108.799L79.225 110.369" stroke="#263238" stroke-miterlimit="10"/>
<path d="M123.47 97.9141L89.115 107.584" stroke="#263238" stroke-miterlimit="10"/>
<path d="M95.23 110.355L81.38 114.255" stroke="#263238" stroke-miterlimit="10"/>
<path d="M116.455 104.379L99.01 109.289" stroke="#263238" stroke-miterlimit="10"/>
<path d="M125.63 101.799L119.695 103.469" stroke="#263238" stroke-miterlimit="10"/>
<path d="M110.52 110.539L83.54 118.134" stroke="#263238" stroke-miterlimit="10"/>
<path d="M127.79 105.68L116.455 108.87" stroke="#263238" stroke-miterlimit="10"/>
<path d="M142.9 96.5646C142.191 95.4019 141.131 94.4949 139.872 93.9753C138.614 93.4557 137.222 93.3504 135.9 93.6746C133.315 94.3996 132.27 96.8746 133.56 99.1746C134.268 100.338 135.328 101.245 136.587 101.765C137.846 102.285 139.238 102.39 140.56 102.065C143.14 101.36 144.19 98.8846 142.9 96.5646Z" fill="white" stroke="#263238" stroke-miterlimit="10"/>
<path d="M127.515 116.795L133.09 115.225" stroke="#263238" stroke-miterlimit="10"/>
<path d="M88.845 127.68L123.2 118.01" stroke="#263238" stroke-miterlimit="10"/>
<path d="M121.4 123.009L135.25 119.109" stroke="#263238" stroke-miterlimit="10"/>
<path d="M100.175 128.985L117.62 124.07" stroke="#263238" stroke-miterlimit="10"/>
<path d="M91 131.565L96.935 129.895" stroke="#263238" stroke-miterlimit="10"/>
<path d="M110.425 130.584L137.405 122.994" stroke="#263238" stroke-miterlimit="10"/>
<path d="M93.16 135.45L104.49 132.26" stroke="#263238" stroke-miterlimit="10"/>
<path d="M152.83 117.149C153.687 114.97 152.146 112.325 149.388 111.241C146.63 110.157 143.7 111.045 142.844 113.224C141.987 115.403 143.528 118.049 146.286 119.133C149.043 120.217 151.973 119.329 152.83 117.149Z" fill="white" stroke="#263238" stroke-miterlimit="10"/>
<path d="M104.04 143.424L98.465 144.994" stroke="#263238" stroke-miterlimit="10"/>
<path d="M142.71 132.539L108.355 142.209" stroke="#263238" stroke-miterlimit="10"/>
<path d="M114.47 144.979L100.62 148.874" stroke="#263238" stroke-miterlimit="10"/>
<path d="M135.695 139.004L118.25 143.914" stroke="#263238" stroke-miterlimit="10"/>
<path d="M144.87 136.42L138.935 138.09" stroke="#263238" stroke-miterlimit="10"/>
<path d="M129.76 145.164L102.78 152.759" stroke="#263238" stroke-miterlimit="10"/>
<path d="M147.025 140.305L135.695 143.495" stroke="#263238" stroke-miterlimit="10"/>
<path d="M162.135 131.185C161.426 130.023 160.365 129.116 159.107 128.597C157.849 128.077 156.457 127.972 155.135 128.295C152.55 129.025 151.505 131.495 152.795 133.82C153.504 134.983 154.564 135.89 155.823 136.409C157.081 136.929 158.473 137.034 159.795 136.71C162.38 136 163.43 133.5 162.135 131.185Z" fill="white" stroke="#263238" stroke-miterlimit="10"/>
<path d="M146.755 151.42L152.33 149.85" stroke="#263238" stroke-miterlimit="10"/>
<path d="M108.085 162.305L142.44 152.635" stroke="#263238" stroke-miterlimit="10"/>
<path d="M140.64 157.629L154.49 153.734" stroke="#263238" stroke-miterlimit="10"/>
<path d="M119.415 163.605L136.86 158.695" stroke="#263238" stroke-miterlimit="10"/>
<path d="M110.24 166.189L116.175 164.514" stroke="#263238" stroke-miterlimit="10"/>
<path d="M129.665 165.21L156.645 157.615" stroke="#263238" stroke-miterlimit="10"/>
<path d="M112.4 170.069L123.73 166.879" stroke="#263238" stroke-miterlimit="10"/>
<path d="M172.068 151.771C172.925 149.591 171.384 146.946 168.626 145.862C165.869 144.778 162.939 145.666 162.082 147.845C161.226 150.024 162.766 152.67 165.524 153.754C168.282 154.838 171.212 153.95 172.068 151.771Z" fill="white" stroke="#263238" stroke-miterlimit="10"/>
<path d="M105.235 62.6995L95.795 65.3545C95.08 65.3845 94.295 65.3295 94.075 64.9645C93.575 64.0245 94.215 63.1445 94.415 62.3145C94.6465 61.3578 94.4977 60.3487 94 59.4995C93.2713 58.3049 92.1811 57.3736 90.8874 56.8404C89.5936 56.3073 88.1637 56.2002 86.805 56.5345C84.155 57.2845 83.085 59.8195 84.405 62.1995C85.0526 63.2988 86.0234 64.1718 87.185 64.6995C87.185 64.6995 89.1 65.5545 89.485 66.2445C89.69 66.6095 89.155 67.0395 88.61 67.3645L78.435 70.2295C78.0514 70.3101 77.6929 70.4824 77.3903 70.7316C77.0877 70.9808 76.8498 71.2995 76.697 71.6606C76.5443 72.0216 76.4811 72.4143 76.513 72.805C76.5448 73.1957 76.6708 73.573 76.88 73.9045L78.255 76.3745L111.29 67.0795L109.915 64.6045C109.44 63.8297 108.729 63.227 107.887 62.8843C107.046 62.5416 106.116 62.4769 105.235 62.6995ZM88.42 59.4695C88.8553 59.3617 89.3137 59.3957 89.7283 59.5665C90.1429 59.7374 90.4921 60.0363 90.725 60.4195C90.8285 60.5829 90.8908 60.7691 90.9065 60.9619C90.9221 61.1548 90.8908 61.3485 90.815 61.5266C90.7393 61.7046 90.6214 61.8616 90.4716 61.984C90.3218 62.1065 90.1446 62.1907 89.955 62.2295C89.521 62.3374 89.0638 62.304 88.6501 62.134C88.2364 61.964 87.8878 61.6664 87.655 61.2845C87.5516 61.121 87.4893 60.9349 87.4734 60.7421C87.4575 60.5493 87.4884 60.3555 87.5636 60.1772C87.6387 59.999 87.7558 59.8415 87.9049 59.7183C88.0541 59.595 88.2308 59.5097 88.42 59.4695Z" fill="#2860E6" stroke="#263238" stroke-miterlimit="10"/>
<path d="M125.606 79.5387L129.681 82.3838L133.881 72.9688" stroke="#2860E6" stroke-width="3" stroke-linecap="round" stroke-linejoin="round"/>
<path d="M135.075 96.5837L139.15 99.4237L143.35 90.0137" stroke="#2860E6" stroke-width="3" stroke-linecap="round" stroke-linejoin="round"/>
</svg>
